<?xml version="1.0" encoding="utf-8" standalone="no"?>
<!DOCTYPE svg PUBLIC "-//W3C//DTD SVG 1.1//EN"
  "http://www.w3.org/Graphics/SVG/1.1/DTD/svg11.dtd">
<svg xmlns:xlink="http://www.w3.org/1999/xlink" width="415.944219pt" height="283.042531pt" viewBox="0 0 415.944219 283.042531" xmlns="http://www.w3.org/2000/svg" version="1.1">
 <metadata>
  <rdf:RDF xmlns:dc="http://purl.org/dc/elements/1.1/" xmlns:cc="http://creativecommons.org/ns#" xmlns:rdf="http://www.w3.org/1999/02/22-rdf-syntax-ns#">
   <cc:Work>
    <dc:type rdf:resource="http://purl.org/dc/dcmitype/StillImage"/>
    <dc:date>2026-06-24T12:37:21.402669</dc:date>
    <dc:format>image/svg+xml</dc:format>
    <dc:creator>
     <cc:Agent>
      <dc:title>Matplotlib v3.9.4, https://matplotlib.org/</dc:title>
     </cc:Agent>
    </dc:creator>
   </cc:Work>
  </rdf:RDF>
 </metadata>
 <defs>
  <style type="text/css">*{stroke-linejoin: round; stroke-linecap: butt}</style>
 </defs>
 <g id="figure_1">
  <g id="patch_1">
   <path d="M 0 283.042531
L 415.944219 283.042531
L 415.944219 0
L 0 0
z
" style="fill: #ffffff"/>
  </g>
  <g id="axes_1">
   <g id="patch_2">
    <path d="M 107.424219 251.87175
L 408.744219 251.87175
L 408.744219 19.02375
L 107.424219 19.02375
z
" style="fill: #ffffff"/>
   </g>
   <g id="LineCollection_1">
    <path d="M 112.902764 241.28775
L 112.902764 241.28775
" clip-path="url(#pf6717a688e)" style="fill: none; stroke: #d55e00; stroke-width: 1.4"/>
   </g>
   <g id="LineCollection_2">
    <path d="M 112.902764 222.044114
L 386.830037 222.044114
" clip-path="url(#pf6717a688e)" style="fill: none; stroke: #56b4e9; stroke-width: 1.4"/>
   </g>
   <g id="LineCollection_3">
    <path d="M 112.902764 202.800477
L 386.830037 202.800477
" clip-path="url(#pf6717a688e)" style="fill: none; stroke: #56b4e9; stroke-width: 1.4"/>
   </g>
   <g id="LineCollection_4">
    <path d="M 112.902764 183.556841
L 386.830037 183.556841
" clip-path="url(#pf6717a688e)" style="fill: none; stroke: #56b4e9; stroke-width: 1.4"/>
   </g>
   <g id="LineCollection_5">
    <path d="M 112.902764 164.313205
L 386.830037 164.313205
" clip-path="url(#pf6717a688e)" style="fill: none; stroke: #56b4e9; stroke-width: 1.4"/>
   </g>
   <g id="LineCollection_6">
    <path d="M 112.902764 145.069568
L 386.830037 145.069568
" clip-path="url(#pf6717a688e)" style="fill: none; stroke: #56b4e9; stroke-width: 1.4"/>
   </g>
   <g id="LineCollection_7">
    <path d="M 112.902764 125.825932
L 386.830037 125.825932
" clip-path="url(#pf6717a688e)" style="fill: none; stroke: #56b4e9; stroke-width: 1.4"/>
   </g>
   <g id="LineCollection_8">
    <path d="M 112.902764 106.582295
L 386.830037 106.582295
" clip-path="url(#pf6717a688e)" style="fill: none; stroke: #0072b2; stroke-width: 1.4"/>
   </g>
   <g id="LineCollection_9">
    <path d="M 112.902764 87.338659
L 386.830037 87.338659
" clip-path="url(#pf6717a688e)" style="fill: none; stroke: #e69f00; stroke-width: 1.4"/>
   </g>
   <g id="LineCollection_10">
    <path d="M 112.902764 68.095023
L 386.830037 68.095023
" clip-path="url(#pf6717a688e)" style="fill: none; stroke: #0072b2; stroke-width: 1.4"/>
   </g>
   <g id="LineCollection_11">
    <path d="M 112.902764 48.851386
L 386.830037 48.851386
" clip-path="url(#pf6717a688e)" style="fill: none; stroke: #0072b2; stroke-width: 1.4"/>
   </g>
   <g id="LineCollection_12">
    <path d="M 112.902764 29.60775
L 386.830037 29.60775
" clip-path="url(#pf6717a688e)" style="fill: none; stroke: #0072b2; stroke-width: 1.4"/>
   </g>
   <g id="matplotlib.axis_1">
    <g id="xtick_1">
     <g id="line2d_1">
      <defs>
       <path id="me54492a28c" d="M 0 0
L 0 3.5
" style="stroke: #000000; stroke-width: 0.8"/>
      </defs>
      <g>
       <use xlink:href="#me54492a28c" x="112.902764" y="251.87175" style="stroke: #000000; stroke-width: 0.8"/>
      </g>
     </g>
     <g id="text_1">
      <text style="font: 7px 'Arial', 'Helvetica', 'DejaVu Sans', sans-serif; text-anchor: middle" x="112.902764" y="263.882219" transform="rotate(-0 112.902764 263.882219)">0.0</text>
     </g>
    </g>
    <g id="xtick_2">
     <g id="line2d_2">
      <g>
       <use xlink:href="#me54492a28c" x="167.688219" y="251.87175" style="stroke: #000000; stroke-width: 0.8"/>
      </g>
     </g>
     <g id="text_2">
      <text style="font: 7px 'Arial', 'Helvetica', 'DejaVu Sans', sans-serif; text-anchor: middle" x="167.688219" y="263.882219" transform="rotate(-0 167.688219 263.882219)">0.2</text>
     </g>
    </g>
    <g id="xtick_3">
     <g id="line2d_3">
      <g>
       <use xlink:href="#me54492a28c" x="222.473673" y="251.87175" style="stroke: #000000; stroke-width: 0.8"/>
      </g>
     </g>
     <g id="text_3">
      <text style="font: 7px 'Arial', 'Helvetica', 'DejaVu Sans', sans-serif; text-anchor: middle" x="222.473673" y="263.882219" transform="rotate(-0 222.473673 263.882219)">0.4</text>
     </g>
    </g>
    <g id="xtick_4">
     <g id="line2d_4">
      <g>
       <use xlink:href="#me54492a28c" x="277.259128" y="251.87175" style="stroke: #000000; stroke-width: 0.8"/>
      </g>
     </g>
     <g id="text_4">
      <text style="font: 7px 'Arial', 'Helvetica', 'DejaVu Sans', sans-serif; text-anchor: middle" x="277.259128" y="263.882219" transform="rotate(-0 277.259128 263.882219)">0.6</text>
     </g>
    </g>
    <g id="xtick_5">
     <g id="line2d_5">
      <g>
       <use xlink:href="#me54492a28c" x="332.044582" y="251.87175" style="stroke: #000000; stroke-width: 0.8"/>
      </g>
     </g>
     <g id="text_5">
      <text style="font: 7px 'Arial', 'Helvetica', 'DejaVu Sans', sans-serif; text-anchor: middle" x="332.044582" y="263.882219" transform="rotate(-0 332.044582 263.882219)">0.8</text>
     </g>
    </g>
    <g id="xtick_6">
     <g id="line2d_6">
      <g>
       <use xlink:href="#me54492a28c" x="386.830037" y="251.87175" style="stroke: #000000; stroke-width: 0.8"/>
      </g>
     </g>
     <g id="text_6">
      <text style="font: 7px 'Arial', 'Helvetica', 'DejaVu Sans', sans-serif; text-anchor: middle" x="386.830037" y="263.882219" transform="rotate(-0 386.830037 263.882219)">1.0</text>
     </g>
    </g>
    <g id="text_7">
     <text style="font: 7px 'Arial', 'Helvetica', 'DejaVu Sans', sans-serif; text-anchor: middle" x="258.084219" y="274.36925" transform="rotate(-0 258.084219 274.36925)">Coverage rate over corrected-clean 285 cells</text>
    </g>
   </g>
   <g id="matplotlib.axis_2">
    <g id="ytick_1">
     <g id="line2d_7">
      <defs>
       <path id="mcc3eb9292f" d="M 0 0
L -3.5 0
" style="stroke: #000000; stroke-width: 0.8"/>
      </defs>
      <g>
       <use xlink:href="#mcc3eb9292f" x="107.424219" y="241.28775" style="stroke: #000000; stroke-width: 0.8"/>
      </g>
     </g>
     <g id="text_8">
      <text style="font: 6.5px 'Arial', 'Helvetica', 'DejaVu Sans', sans-serif; text-anchor: end" x="100.424219" y="243.614039" transform="rotate(-0 100.424219 243.614039)">script_version_seed</text>
     </g>
    </g>
    <g id="ytick_2">
     <g id="line2d_8">
      <g>
       <use xlink:href="#mcc3eb9292f" x="107.424219" y="222.044114" style="stroke: #000000; stroke-width: 0.8"/>
      </g>
     </g>
     <g id="text_9">
      <text style="font: 6.5px 'Arial', 'Helvetica', 'DejaVu Sans', sans-serif; text-anchor: end" x="100.424219" y="224.370403" transform="rotate(-0 100.424219 224.370403)">initial_conditions</text>
     </g>
    </g>
    <g id="ytick_3">
     <g id="line2d_9">
      <g>
       <use xlink:href="#mcc3eb9292f" x="107.424219" y="202.800477" style="stroke: #000000; stroke-width: 0.8"/>
      </g>
     </g>
     <g id="text_10">
      <text style="font: 6.5px 'Arial', 'Helvetica', 'DejaVu Sans', sans-serif; text-anchor: end" x="100.424219" y="205.126766" transform="rotate(-0 100.424219 205.126766)">mission_status</text>
     </g>
    </g>
    <g id="ytick_4">
     <g id="line2d_10">
      <g>
       <use xlink:href="#mcc3eb9292f" x="107.424219" y="183.556841" style="stroke: #000000; stroke-width: 0.8"/>
      </g>
     </g>
     <g id="text_11">
      <text style="font: 6.5px 'Arial', 'Helvetica', 'DejaVu Sans', sans-serif; text-anchor: end" x="100.424219" y="185.922739" transform="rotate(-0 100.424219 185.922739)">intervention_fallback_replanning</text>
     </g>
    </g>
    <g id="ytick_5">
     <g id="line2d_11">
      <g>
       <use xlink:href="#mcc3eb9292f" x="107.424219" y="164.313205" style="stroke: #000000; stroke-width: 0.8"/>
      </g>
     </g>
     <g id="text_12">
      <text style="font: 6.5px 'Arial', 'Helvetica', 'DejaVu Sans', sans-serif; text-anchor: end" x="100.424219" y="166.639494" transform="rotate(-0 100.424219 166.639494)">ttc_apet_min_distance</text>
     </g>
    </g>
    <g id="ytick_6">
     <g id="line2d_12">
      <g>
       <use xlink:href="#mcc3eb9292f" x="107.424219" y="145.069568" style="stroke: #000000; stroke-width: 0.8"/>
      </g>
     </g>
     <g id="text_13">
      <text style="font: 6.5px 'Arial', 'Helvetica', 'DejaVu Sans', sans-serif; text-anchor: end" x="100.424219" y="147.395857" transform="rotate(-0 100.424219 147.395857)">collision_rule_violations</text>
     </g>
    </g>
    <g id="ytick_7">
     <g id="line2d_13">
      <g>
       <use xlink:href="#mcc3eb9292f" x="107.424219" y="125.825932" style="stroke: #000000; stroke-width: 0.8"/>
      </g>
     </g>
     <g id="text_14">
      <text style="font: 6.5px 'Arial', 'Helvetica', 'DejaVu Sans', sans-serif; text-anchor: end" x="100.424219" y="128.19183" transform="rotate(-0 100.424219 128.19183)">success_failure</text>
     </g>
    </g>
    <g id="ytick_8">
     <g id="line2d_14">
      <g>
       <use xlink:href="#mcc3eb9292f" x="107.424219" y="106.582295" style="stroke: #000000; stroke-width: 0.8"/>
      </g>
     </g>
     <g id="text_15">
      <text style="font: 6.5px 'Arial', 'Helvetica', 'DejaVu Sans', sans-serif; text-anchor: end" x="100.424219" y="108.908585" transform="rotate(-0 100.424219 108.908585)">per_scenario_scores</text>
     </g>
    </g>
    <g id="ytick_9">
     <g id="line2d_15">
      <g>
       <use xlink:href="#mcc3eb9292f" x="107.424219" y="87.338659" style="stroke: #000000; stroke-width: 0.8"/>
      </g>
     </g>
     <g id="text_16">
      <text style="font: 6.5px 'Arial', 'Helvetica', 'DejaVu Sans', sans-serif; text-anchor: end" x="100.424219" y="89.664948" transform="rotate(-0 100.424219 89.664948)">map_route_role_scenario</text>
     </g>
    </g>
    <g id="ytick_10">
     <g id="line2d_16">
      <g>
       <use xlink:href="#mcc3eb9292f" x="107.424219" y="68.095023" style="stroke: #000000; stroke-width: 0.8"/>
      </g>
     </g>
     <g id="text_17">
      <text style="font: 6.5px 'Arial', 'Helvetica', 'DejaVu Sans', sans-serif; text-anchor: end" x="100.424219" y="70.421312" transform="rotate(-0 100.424219 70.421312)">timestamps_sampling</text>
     </g>
    </g>
    <g id="ytick_11">
     <g id="line2d_17">
      <g>
       <use xlink:href="#mcc3eb9292f" x="107.424219" y="48.851386" style="stroke: #000000; stroke-width: 0.8"/>
      </g>
     </g>
     <g id="text_18">
      <text style="font: 6.5px 'Arial', 'Helvetica', 'DejaVu Sans', sans-serif; text-anchor: end" x="100.424219" y="51.177675" transform="rotate(-0 100.424219 51.177675)">surrounding_actors_ids</text>
     </g>
    </g>
    <g id="ytick_12">
     <g id="line2d_18">
      <g>
       <use xlink:href="#mcc3eb9292f" x="107.424219" y="29.60775" style="stroke: #000000; stroke-width: 0.8"/>
      </g>
     </g>
     <g id="text_19">
      <text style="font: 6.5px 'Arial', 'Helvetica', 'DejaVu Sans', sans-serif; text-anchor: end" x="100.424219" y="31.934039" transform="rotate(-0 100.424219 31.934039)">ego_trajectory</text>
     </g>
    </g>
   </g>
   <g id="PathCollection_1">
    <defs>
     <path id="m6249af086d" d="M 0 3.24037
C 0.859356 3.24037 1.683631 2.898944 2.291288 2.291288
C 2.898944 1.683631 3.24037 0.859356 3.24037 0
C 3.24037 -0.859356 2.898944 -1.683631 2.291288 -2.291288
C 1.683631 -2.898944 0.859356 -3.24037 0 -3.24037
C -0.859356 -3.24037 -1.683631 -2.898944 -2.291288 -2.291288
C -2.898944 -1.683631 -3.24037 -0.859356 -3.24037 0
C -3.24037 0.859356 -2.898944 1.683631 -2.291288 2.291288
C -1.683631 2.898944 -0.859356 3.24037 0 3.24037
z
" style="stroke: #d55e00"/>
    </defs>
    <g clip-path="url(#pf6717a688e)">
     <use xlink:href="#m6249af086d" x="112.902764" y="241.28775" style="fill: #d55e00; stroke: #d55e00"/>
    </g>
   </g>
   <g id="PathCollection_2">
    <defs>
     <path id="m01ffa25880" d="M 0 3.24037
C 0.859356 3.24037 1.683631 2.898944 2.291288 2.291288
C 2.898944 1.683631 3.24037 0.859356 3.24037 0
C 3.24037 -0.859356 2.898944 -1.683631 2.291288 -2.291288
C 1.683631 -2.898944 0.859356 -3.24037 0 -3.24037
C -0.859356 -3.24037 -1.683631 -2.898944 -2.291288 -2.291288
C -2.898944 -1.683631 -3.24037 -0.859356 -3.24037 0
C -3.24037 0.859356 -2.898944 1.683631 -2.291288 2.291288
C -1.683631 2.898944 -0.859356 3.24037 0 3.24037
z
" style="stroke: #56b4e9"/>
    </defs>
    <g clip-path="url(#pf6717a688e)">
     <use xlink:href="#m01ffa25880" x="386.830037" y="222.044114" style="fill: #56b4e9; stroke: #56b4e9"/>
    </g>
   </g>
   <g id="PathCollection_3">
    <g clip-path="url(#pf6717a688e)">
     <use xlink:href="#m01ffa25880" x="386.830037" y="202.800477" style="fill: #56b4e9; stroke: #56b4e9"/>
    </g>
   </g>
   <g id="PathCollection_4">
    <g clip-path="url(#pf6717a688e)">
     <use xlink:href="#m01ffa25880" x="386.830037" y="183.556841" style="fill: #56b4e9; stroke: #56b4e9"/>
    </g>
   </g>
   <g id="PathCollection_5">
    <g clip-path="url(#pf6717a688e)">
     <use xlink:href="#m01ffa25880" x="386.830037" y="164.313205" style="fill: #56b4e9; stroke: #56b4e9"/>
    </g>
   </g>
   <g id="PathCollection_6">
    <g clip-path="url(#pf6717a688e)">
     <use xlink:href="#m01ffa25880" x="386.830037" y="145.069568" style="fill: #56b4e9; stroke: #56b4e9"/>
    </g>
   </g>
   <g id="PathCollection_7">
    <g clip-path="url(#pf6717a688e)">
     <use xlink:href="#m01ffa25880" x="386.830037" y="125.825932" style="fill: #56b4e9; stroke: #56b4e9"/>
    </g>
   </g>
   <g id="PathCollection_8">
    <defs>
     <path id="mb1110a5a99" d="M 0 3.24037
C 0.859356 3.24037 1.683631 2.898944 2.291288 2.291288
C 2.898944 1.683631 3.24037 0.859356 3.24037 0
C 3.24037 -0.859356 2.898944 -1.683631 2.291288 -2.291288
C 1.683631 -2.898944 0.859356 -3.24037 0 -3.24037
C -0.859356 -3.24037 -1.683631 -2.898944 -2.291288 -2.291288
C -2.898944 -1.683631 -3.24037 -0.859356 -3.24037 0
C -3.24037 0.859356 -2.898944 1.683631 -2.291288 2.291288
C -1.683631 2.898944 -0.859356 3.24037 0 3.24037
z
" style="stroke: #0072b2"/>
    </defs>
    <g clip-path="url(#pf6717a688e)">
     <use xlink:href="#mb1110a5a99" x="386.830037" y="106.582295" style="fill: #0072b2; stroke: #0072b2"/>
    </g>
   </g>
   <g id="PathCollection_9">
    <defs>
     <path id="m6780ef99b9" d="M 0 3.24037
C 0.859356 3.24037 1.683631 2.898944 2.291288 2.291288
C 2.898944 1.683631 3.24037 0.859356 3.24037 0
C 3.24037 -0.859356 2.898944 -1.683631 2.291288 -2.291288
C 1.683631 -2.898944 0.859356 -3.24037 0 -3.24037
C -0.859356 -3.24037 -1.683631 -2.898944 -2.291288 -2.291288
C -2.898944 -1.683631 -3.24037 -0.859356 -3.24037 0
C -3.24037 0.859356 -2.898944 1.683631 -2.291288 2.291288
C -1.683631 2.898944 -0.859356 3.24037 0 3.24037
z
" style="stroke: #e69f00"/>
    </defs>
    <g clip-path="url(#pf6717a688e)">
     <use xlink:href="#m6780ef99b9" x="386.830037" y="87.338659" style="fill: #e69f00; stroke: #e69f00"/>
    </g>
   </g>
   <g id="PathCollection_10">
    <g clip-path="url(#pf6717a688e)">
     <use xlink:href="#mb1110a5a99" x="386.830037" y="68.095023" style="fill: #0072b2; stroke: #0072b2"/>
    </g>
   </g>
   <g id="PathCollection_11">
    <g clip-path="url(#pf6717a688e)">
     <use xlink:href="#mb1110a5a99" x="386.830037" y="48.851386" style="fill: #0072b2; stroke: #0072b2"/>
    </g>
   </g>
   <g id="PathCollection_12">
    <g clip-path="url(#pf6717a688e)">
     <use xlink:href="#mb1110a5a99" x="386.830037" y="29.60775" style="fill: #0072b2; stroke: #0072b2"/>
    </g>
   </g>
   <g id="patch_3">
    <path d="M 107.424219 251.87175
L 107.424219 19.02375
" style="fill: none; stroke: #000000; stroke-width: 0.8; stroke-linejoin: miter; stroke-linecap: square"/>
   </g>
   <g id="patch_4">
    <path d="M 107.424219 251.87175
L 408.744219 251.87175
" style="fill: none; stroke: #000000; stroke-width: 0.8; stroke-linejoin: miter; stroke-linecap: square"/>
   </g>
   <g id="text_20">
    <text style="fill: #d55e00; font: 5.6px 'Arial', 'Helvetica', 'DejaVu Sans', sans-serif; text-anchor: start" x="118.38131" y="242.73675" transform="rotate(-0 118.38131 242.73675)">missing (not needed for matched-scenario; blocks repeated-run)</text>
   </g>
   <g id="text_21">
    <text style="fill: #e69f00; font: 5.6px 'Arial', 'Helvetica', 'DejaVu Sans', sans-serif; text-anchor: start" x="118.38131" y="88.787659" transform="rotate(-0 118.38131 88.787659)">partial: scenario semantics direct; route/role partial for replay</text>
   </g>
   <g id="text_22">
    <text style="font: 8px 'Arial', 'Helvetica', 'DejaVu Sans', sans-serif; text-anchor: middle" x="258.084219" y="13.02375" transform="rotate(-0 258.084219 13.02375)">Required-field availability (corrected-clean replay universe)</text>
   </g>
   <g id="legend_1">
    <g id="patch_5">
     <path d="M 362.197344 219.747375
L 374.197344 219.747375
L 374.197344 215.547375
L 362.197344 215.547375
z
" style="fill: #0072b2"/>
    </g>
    <g id="text_23">
     <text style="font: 6px 'Arial', 'Helvetica', 'DejaVu Sans', sans-serif; text-anchor: start" x="378.997344" y="219.747375" transform="rotate(-0 378.997344 219.747375)">direct</text>
    </g>
    <g id="patch_6">
     <path d="M 362.197344 228.234563
L 374.197344 228.234563
L 374.197344 224.034563
L 362.197344 224.034563
z
" style="fill: #56b4e9"/>
    </g>
    <g id="text_24">
     <text style="font: 6px 'Arial', 'Helvetica', 'DejaVu Sans', sans-serif; text-anchor: start" x="378.997344" y="228.234563" transform="rotate(-0 378.997344 228.234563)">derivable</text>
    </g>
    <g id="patch_7">
     <path d="M 362.197344 236.72175
L 374.197344 236.72175
L 374.197344 232.52175
L 362.197344 232.52175
z
" style="fill: #e69f00"/>
    </g>
    <g id="text_25">
     <text style="font: 6px 'Arial', 'Helvetica', 'DejaVu Sans', sans-serif; text-anchor: start" x="378.997344" y="236.72175" transform="rotate(-0 378.997344 236.72175)">partial</text>
    </g>
    <g id="patch_8">
     <path d="M 362.197344 245.208938
L 374.197344 245.208938
L 374.197344 241.008938
L 362.197344 241.008938
z
" style="fill: #d55e00"/>
    </g>
    <g id="text_26">
     <text style="font: 6px 'Arial', 'Helvetica', 'DejaVu Sans', sans-serif; text-anchor: start" x="378.997344" y="245.208938" transform="rotate(-0 378.997344 245.208938)">missing</text>
    </g>
   </g>
  </g>
 </g>
 <defs>
  <clipPath id="pf6717a688e">
   <rect x="107.424219" y="19.02375" width="301.32" height="232.848"/>
  </clipPath>
 </defs>
</svg>
