<?xml version="1.0" encoding="utf-8" standalone="no"?>
<!DOCTYPE svg PUBLIC "-//W3C//DTD SVG 1.1//EN"
  "http://www.w3.org/Graphics/SVG/1.1/DTD/svg11.dtd">
<svg xmlns:xlink="http://www.w3.org/1999/xlink" width="518.4pt" height="399.6pt" viewBox="0 0 518.4 399.6" xmlns="http://www.w3.org/2000/svg" version="1.1">
 <metadata>
  <rdf:RDF xmlns:dc="http://purl.org/dc/elements/1.1/" xmlns:cc="http://creativecommons.org/ns#" xmlns:rdf="http://www.w3.org/1999/02/22-rdf-syntax-ns#">
   <cc:Work>
    <dc:type rdf:resource="http://purl.org/dc/dcmitype/StillImage"/>
    <dc:date>2026-09-25T11:15:13.224717</dc:date>
    <dc:format>image/svg+xml</dc:format>
    <dc:creator>
     <cc:Agent>
      <dc:title>Matplotlib v3.9.4, https://matplotlib.org/</dc:title>
     </cc:Agent>
    </dc:creator>
   </cc:Work>
  </rdf:RDF>
 </metadata>
 <defs>
  <style type="text/css">*{stroke-linejoin: round; stroke-linecap: butt}</style>
 </defs>
 <g id="figure_1">
  <g id="patch_1">
   <path d="M 0 399.6 
L 518.4 399.6 
L 518.4 0 
L 0 0 
z
" style="fill: #ffffff"/>
  </g>
  <g id="axes_1">
   <g id="patch_2">
    <path d="M 40.79808 66.925008 
L 107.98272 66.925008 
Q 113.58144 66.925008 113.58144 65.630304 
L 113.58144 45.778176 
Q 113.58144 44.483472 107.98272 44.483472 
L 40.79808 44.483472 
Q 35.19936 44.483472 35.19936 45.778176 
L 35.19936 65.630304 
Q 35.19936 66.925008 40.79808 66.925008 
z
" clip-path="url(#p56e8c789d2)" style="fill: #ffffff; stroke: #263850; stroke-width: 0.75; stroke-linejoin: miter"/>
   </g>
   <g id="patch_3">
    <path d="M 136.44288 66.925008 
L 212.95872 66.925008 
Q 218.55744 66.925008 218.55744 65.630304 
L 218.55744 45.778176 
Q 218.55744 44.483472 212.95872 44.483472 
L 136.44288 44.483472 
Q 130.84416 44.483472 130.84416 45.778176 
L 130.84416 65.630304 
Q 130.84416 66.925008 136.44288 66.925008 
z
" clip-path="url(#p56e8c789d2)" style="fill: #ffffff; stroke: #263850; stroke-width: 0.75; stroke-linejoin: miter"/>
   </g>
   <g id="patch_4">
    <path d="M 241.41888 66.925008 
L 299.27232 66.925008 
Q 304.87104 66.925008 304.87104 65.630304 
L 304.87104 45.778176 
Q 304.87104 44.483472 299.27232 44.483472 
L 241.41888 44.483472 
Q 235.82016 44.483472 235.82016 45.778176 
L 235.82016 65.630304 
Q 235.82016 66.925008 241.41888 66.925008 
z
" clip-path="url(#p56e8c789d2)" style="fill: #ffffff; stroke: #263850; stroke-width: 0.75; stroke-linejoin: miter"/>
   </g>
   <g id="patch_5">
    <path d="M 40.79808 105.766128 
L 107.98272 105.766128 
Q 113.58144 105.766128 113.58144 104.471424 
L 113.58144 84.619296 
Q 113.58144 83.324592 107.98272 83.324592 
L 40.79808 83.324592 
Q 35.19936 83.324592 35.19936 84.619296 
L 35.19936 104.471424 
Q 35.19936 105.766128 40.79808 105.766128 
z
" clip-path="url(#p56e8c789d2)" style="fill: #ffffff; stroke: #263850; stroke-width: 0.75; stroke-linejoin: miter"/>
   </g>
   <g id="patch_6">
    <path d="M 136.44288 105.766128 
L 212.95872 105.766128 
Q 218.55744 105.766128 218.55744 104.471424 
L 218.55744 84.619296 
Q 218.55744 83.324592 212.95872 83.324592 
L 136.44288 83.324592 
Q 130.84416 83.324592 130.84416 84.619296 
L 130.84416 104.471424 
Q 130.84416 105.766128 136.44288 105.766128 
z
" clip-path="url(#p56e8c789d2)" style="fill: #ffffff; stroke: #263850; stroke-width: 0.75; stroke-linejoin: miter"/>
   </g>
   <g id="patch_7">
    <path d="M 241.41888 105.766128 
L 299.27232 105.766128 
Q 304.87104 105.766128 304.87104 104.471424 
L 304.87104 84.619296 
Q 304.87104 83.324592 299.27232 83.324592 
L 241.41888 83.324592 
Q 235.82016 83.324592 235.82016 84.619296 
L 235.82016 104.471424 
Q 235.82016 105.766128 241.41888 105.766128 
z
" clip-path="url(#p56e8c789d2)" style="fill: #ffffff; stroke: #263850; stroke-width: 0.75; stroke-linejoin: miter"/>
   </g>
   <g id="patch_8">
    <path d="M 327.73248 88.503408 
L 385.58592 88.503408 
Q 391.18464 88.503408 391.18464 87.208704 
L 391.18464 63.040896 
Q 391.18464 61.746192 385.58592 61.746192 
L 327.73248 61.746192 
Q 322.13376 61.746192 322.13376 63.040896 
L 322.13376 87.208704 
Q 322.13376 88.503408 327.73248 88.503408 
z
" clip-path="url(#p56e8c789d2)" style="fill: #ffffff; stroke: #263850; stroke-width: 0.75; stroke-linejoin: miter"/>
   </g>
   <g id="patch_9">
    <path d="M 416.37888 53.977968 
L 495.22752 53.977968 
Q 500.82624 53.977968 500.82624 52.683264 
L 500.82624 37.146816 
Q 500.82624 35.852112 495.22752 35.852112 
L 416.37888 35.852112 
Q 410.78016 35.852112 410.78016 37.146816 
L 410.78016 52.683264 
Q 410.78016 53.977968 416.37888 53.977968 
z
" clip-path="url(#p56e8c789d2)" style="fill: #b64342; fill-opacity: 0.12549; stroke: #b64342; stroke-width: 0.75; stroke-linejoin: miter"/>
   </g>
   <g id="patch_10">
    <path d="M 416.37888 78.793128 
L 495.22752 78.793128 
Q 500.82624 78.793128 500.82624 77.498424 
L 500.82624 61.961976 
Q 500.82624 60.667272 495.22752 60.667272 
L 416.37888 60.667272 
Q 410.78016 60.667272 410.78016 61.961976 
L 410.78016 77.498424 
Q 410.78016 78.793128 416.37888 78.793128 
z
" clip-path="url(#p56e8c789d2)" style="fill: #d98884; fill-opacity: 0.12549; stroke: #d98884; stroke-width: 0.75; stroke-linejoin: miter"/>
   </g>
   <g id="patch_11">
    <path d="M 416.37888 103.608288 
L 495.22752 103.608288 
Q 500.82624 103.608288 500.82624 102.313584 
L 500.82624 86.777136 
Q 500.82624 85.482432 495.22752 85.482432 
L 416.37888 85.482432 
Q 410.78016 85.482432 410.78016 86.777136 
L 410.78016 102.313584 
Q 410.78016 103.608288 416.37888 103.608288 
z
" clip-path="url(#p56e8c789d2)" style="fill: #2c737a; fill-opacity: 0.12549; stroke: #2c737a; stroke-width: 0.75; stroke-linejoin: miter"/>
   </g>
   <g id="patch_12">
    <path d="M 416.37888 135.436428 
L 495.22752 135.436428 
Q 500.82624 135.436428 500.82624 134.141724 
L 500.82624 118.605276 
Q 500.82624 117.310572 495.22752 117.310572 
L 416.37888 117.310572 
Q 410.78016 117.310572 410.78016 118.605276 
L 410.78016 134.141724 
Q 410.78016 135.436428 416.37888 135.436428 
z
" clip-path="url(#p56e8c789d2)" style="fill: #e9ebec; stroke: #9aa0a6; stroke-width: 0.75; stroke-linejoin: miter"/>
   </g>
   <g id="line2d_1">
    <path d="M 270.3456 105.33456 
L 270.3456 126.3735 
L 403.3152 126.3735 
" clip-path="url(#p56e8c789d2)" style="fill: none; stroke: #9aa0a6; stroke-width: 0.8; stroke-linecap: square"/>
   </g>
   <g id="line2d_2">
    <path d="M 249.3504 66.49344 
L 226.0224 74.04588 
L 226.0224 92.38752 
" clip-path="url(#p56e8c789d2)" style="fill: none; stroke: #9aa0a6; stroke-width: 0.8; stroke-linecap: square"/>
   </g>
   <g id="line2d_3">
    <path d="M 226.0224 96.7032 
L 226.0224 126.3735 
L 270.3456 126.3735 
" clip-path="url(#p56e8c789d2)" style="fill: none; stroke: #9aa0a6; stroke-width: 0.8; stroke-linecap: square"/>
   </g>
   <g id="text_1">
    <text style="fill: #242424; font: 700 11px 'Arial'; text-anchor: start" x="11.4048" y="24.942079" transform="rotate(-0 11.4048 24.942079)">a</text>
   </g>
   <g id="text_2">
    <text style="fill: #242424; font: 7.1px 'Arial'" transform="translate(47.756525 53.659523)">Causal trajectory</text>
    <text style="fill: #242424; font: 7.1px 'Arial'" transform="translate(62.551705 61.50641)">window</text>
   </g>
   <g id="text_3">
    <text style="fill: #242424; font: 7.1px 'Arial'; text-anchor: middle" x="174.7008" y="57.498099" transform="rotate(-0 174.7008 57.498099)">IPV reading</text>
   </g>
   <g id="text_4">
    <text style="fill: #242424; font: 7.1px 'Arial'; text-anchor: middle" x="270.3456" y="57.539701" transform="rotate(-0 270.3456 57.539701)">Readable?</text>
   </g>
   <g id="patch_13">
    <path d="M 113.716818 55.70424 
Q 122.214313 55.70424 129.761479 55.70424 
" style="fill: none; stroke: #263850; stroke-width: 0.85; stroke-linecap: round"/>
    <path d="M 126.561479 54.10424 
L 129.761479 55.70424 
L 126.561479 57.30424 
" style="fill: none; stroke: #263850; stroke-width: 0.85; stroke-linecap: round"/>
   </g>
   <g id="patch_14">
    <path d="M 218.692818 55.70424 
Q 227.190313 55.70424 234.737479 55.70424 
" style="fill: none; stroke: #263850; stroke-width: 0.85; stroke-linecap: round"/>
    <path d="M 231.537479 54.10424 
L 234.737479 55.70424 
L 231.537479 57.30424 
" style="fill: none; stroke: #263850; stroke-width: 0.85; stroke-linecap: round"/>
   </g>
   <g id="patch_15">
    <path d="M 304.473336 57.062636 
Q 313.503703 65.415725 321.836434 73.123502 
" style="fill: none; stroke: #263850; stroke-width: 0.85; stroke-linecap: round"/>
    <path d="M 320.573783 69.776008 
L 321.836434 73.123502 
L 318.400849 72.125126 
" style="fill: none; stroke: #263850; stroke-width: 0.85; stroke-linecap: round"/>
   </g>
   <g id="text_5">
    <text style="fill: #242424; font: 7.1px 'Arial'" transform="translate(56.237697 92.498979)">Observable</text>
    <text style="fill: #242424; font: 7.1px 'Arial'" transform="translate(61.168869 100.262663)">situation</text>
   </g>
   <g id="text_6">
    <text style="fill: #242424; font: 7.1px 'Arial'" transform="translate(147.275386 92.457378)">Human reference</text>
    <text style="fill: #242424; font: 7.1px 'Arial'" transform="translate(165.62223 100.221061)">range</text>
   </g>
   <g id="text_7">
    <text style="fill: #242424; font: 7.1px 'Arial'; text-anchor: middle" x="270.3456" y="96.424087" transform="rotate(-0 270.3456 96.424087)">Supported?</text>
   </g>
   <g id="patch_16">
    <path d="M 113.716818 94.54536 
Q 122.214313 94.54536 129.761479 94.54536 
" style="fill: none; stroke: #263850; stroke-width: 0.85; stroke-linecap: round"/>
    <path d="M 126.561479 92.94536 
L 129.761479 94.54536 
L 126.561479 96.14536 
" style="fill: none; stroke: #263850; stroke-width: 0.85; stroke-linecap: round"/>
   </g>
   <g id="patch_17">
    <path d="M 218.692818 94.54536 
Q 227.190313 94.54536 234.737479 94.54536 
" style="fill: none; stroke: #263850; stroke-width: 0.85; stroke-linecap: round"/>
    <path d="M 231.537479 92.94536 
L 234.737479 94.54536 
L 231.537479 96.14536 
" style="fill: none; stroke: #263850; stroke-width: 0.85; stroke-linecap: round"/>
   </g>
   <g id="patch_18">
    <path d="M 304.473336 93.186964 
Q 313.503703 84.833875 321.836434 77.126098 
" style="fill: none; stroke: #263850; stroke-width: 0.85; stroke-linecap: round"/>
    <path d="M 318.400849 78.124474 
L 321.836434 77.126098 
L 320.573783 80.473592 
" style="fill: none; stroke: #263850; stroke-width: 0.85; stroke-linecap: round"/>
   </g>
   <g id="text_8">
    <text style="fill: #242424; font: 7.1px 'Arial'" transform="translate(342.059825 69.102558)">Compare</text>
    <text style="fill: #242424; font: 7.1px 'Arial'" transform="translate(337.518598 76.866241)">reading with</text>
    <text style="fill: #242424; font: 7.1px 'Arial'" transform="translate(339.489403 84.821292)">90% range</text>
   </g>
   <g id="text_9">
    <text style="fill: #242424; font: 6.6px 'Arial'; text-anchor: middle" x="312.336" y="44.91504" transform="rotate(-0 312.336 44.91504)">pass</text>
   </g>
   <g id="text_10">
    <text style="fill: #242424; font: 6.6px 'Arial'; text-anchor: middle" x="312.336" y="107.4924" transform="rotate(-0 312.336 107.4924)">pass</text>
   </g>
   <g id="text_11">
    <text style="fill: #242424; font: 6.7px 'Arial'; text-anchor: middle" x="455.8032" y="46.647095" transform="rotate(-0 455.8032 46.647095)">A · assertive side</text>
   </g>
   <g id="patch_19">
    <path d="M 390.540045 73.54277 
Q 400.982005 60.020431 410.843138 47.250265 
" style="fill: none; stroke: #263850; stroke-width: 0.85; stroke-linecap: round"/>
    <path d="M 407.620962 48.805123 
L 410.843138 47.250265 
L 410.153719 50.76092 
" style="fill: none; stroke: #263850; stroke-width: 0.85; stroke-linecap: round"/>
   </g>
   <g id="text_12">
    <text style="fill: #242424; font: 6.7px 'Arial'; text-anchor: middle" x="455.8032" y="71.463825" transform="rotate(-0 455.8032 71.463825)">C · accommodating side</text>
   </g>
   <g id="patch_20">
    <path d="M 391.269045 74.673713 
Q 400.983059 72.427348 409.771179 70.395095 
" style="fill: none; stroke: #263850; stroke-width: 0.85; stroke-linecap: round"/>
    <path d="M 406.292969 69.557207 
L 409.771179 70.395095 
L 407.013942 72.67493 
" style="fill: none; stroke: #263850; stroke-width: 0.85; stroke-linecap: round"/>
   </g>
   <g id="text_13">
    <text style="fill: #242424; font: 6.7px 'Arial'; text-anchor: middle" x="455.8032" y="96.238157" transform="rotate(-0 455.8032 96.238157)">W · inside range</text>
   </g>
   <g id="patch_21">
    <path d="M 390.853287 76.402593 
Q 400.982349 84.835038 410.381049 92.659456 
" style="fill: none; stroke: #263850; stroke-width: 0.85; stroke-linecap: round"/>
    <path d="M 408.945424 89.382417 
L 410.381049 92.659456 
L 406.898043 91.841733 
" style="fill: none; stroke: #263850; stroke-width: 0.85; stroke-linecap: round"/>
   </g>
   <g id="text_14">
    <text style="fill: #242424; font: 6.7px 'Arial'; text-anchor: middle" x="455.8032" y="128.105555" transform="rotate(-0 455.8032 128.105555)">Abstain · no verdict</text>
   </g>
   <g id="patch_22">
    <path d="M 405.315394 126.3735 
Q 407.980401 126.3735 409.695079 126.3735 
" style="fill: none; stroke: #9aa0a6; stroke-width: 0.85; stroke-linecap: round"/>
    <path d="M 406.495079 124.7735 
L 409.695079 126.3735 
L 406.495079 127.9735 
" style="fill: none; stroke: #9aa0a6; stroke-width: 0.85; stroke-linecap: round"/>
   </g>
   <g id="text_15">
    <text style="fill: #242424; font: 6.6px 'Arial'; text-anchor: middle" x="328.6656" y="132.93639" transform="rotate(-0 328.6656 132.93639)">either gate fails</text>
   </g>
   <g id="text_16">
    <text style="fill: #263850; font: 6.5px 'Arial'; text-anchor: start" x="37.0656" y="135.54432" transform="rotate(-0 37.0656 135.54432)">Later evaluation: objective interaction outcomes and subjective ratings</text>
   </g>
   <g id="text_17">
    <text style="fill: #242424; font: 700 9px 'Arial'; text-anchor: start" x="34.7328" y="21.968" transform="rotate(-0 34.7328 21.968)">Two inputs, two evidence gates, one comparison</text>
   </g>
  </g>
  <g id="axes_2">
   <g id="patch_23">
    <path d="M 74.558125 345.654 
L 169.089875 345.654 
L 169.089875 191.808 
L 74.558125 191.808 
z
" style="fill: #ffffff"/>
   </g>
   <g id="patch_24">
    <path d="M 97.98779 261.957671 
C 100.148794 261.957671 102.221579 261.099095 103.749639 259.571035 
C 105.2777 258.042974 106.136276 255.970189 106.136276 253.809185 
C 106.136276 251.648182 105.2777 249.575396 103.749639 248.047336 
C 102.221579 246.519276 100.148794 245.6607 97.98779 245.6607 
C 95.826786 245.6607 93.754001 246.519276 92.225941 248.047336 
C 90.69788 249.575396 89.839305 251.648182 89.839305 253.809185 
C 89.839305 255.970189 90.69788 258.042974 92.225941 259.571035 
C 93.754001 261.099095 95.826786 261.957671 97.98779 261.957671 
z
" clip-path="url(#p1051bce22b)" style="fill: #e9ddbd; opacity: 0.75; stroke: #887540; stroke-width: 0.75; stroke-linejoin: miter"/>
   </g>
   <g id="matplotlib.axis_1">
    <g id="xtick_1">
     <g id="line2d_4">
      <defs>
       <path id="m8f1a78aca8" d="M 0 0 
L 0 3.5 
" style="stroke: #000000; stroke-width: 0.8"/>
      </defs>
      <g>
       <use xlink:href="#m8f1a78aca8" x="97.98779" y="345.654" style="stroke: #000000; stroke-width: 0.8"/>
      </g>
     </g>
     <g id="text_18">
      <text style="font: 7.5px 'Arial'; text-anchor: middle" x="97.98779" y="358.022359" transform="rotate(-0 97.98779 358.022359)">0</text>
     </g>
    </g>
    <g id="xtick_2">
     <g id="line2d_5">
      <g>
       <use xlink:href="#m8f1a78aca8" x="130.581732" y="345.654" style="stroke: #000000; stroke-width: 0.8"/>
      </g>
     </g>
     <g id="text_19">
      <text style="font: 7.5px 'Arial'; text-anchor: middle" x="130.581732" y="358.022359" transform="rotate(-0 130.581732 358.022359)">20</text>
     </g>
    </g>
    <g id="xtick_3">
     <g id="line2d_6">
      <g>
       <use xlink:href="#m8f1a78aca8" x="163.175674" y="345.654" style="stroke: #000000; stroke-width: 0.8"/>
      </g>
     </g>
     <g id="text_20">
      <text style="font: 7.5px 'Arial'; text-anchor: middle" x="163.175674" y="358.022359" transform="rotate(-0 163.175674 358.022359)">40</text>
     </g>
    </g>
    <g id="text_21">
     <text style="fill: #242424; font: 8px 'Arial'; text-anchor: middle" x="121.824" y="369.336734" transform="rotate(-0 121.824 369.336734)">Local x position (m)</text>
    </g>
   </g>
   <g id="matplotlib.axis_2">
    <g id="ytick_1">
     <g id="line2d_7">
      <defs>
       <path id="md045353712" d="M 0 0 
L -3.5 0 
" style="stroke: #000000; stroke-width: 0.8"/>
      </defs>
      <g>
       <use xlink:href="#md045353712" x="74.558125" y="318.997069" style="stroke: #000000; stroke-width: 0.8"/>
      </g>
     </g>
     <g id="text_22">
      <text style="font: 7.5px 'Arial'; text-anchor: end" x="67.558125" y="321.681249" transform="rotate(-0 67.558125 321.681249)">−40</text>
     </g>
    </g>
    <g id="ytick_2">
     <g id="line2d_8">
      <g>
       <use xlink:href="#md045353712" x="74.558125" y="286.403127" style="stroke: #000000; stroke-width: 0.8"/>
      </g>
     </g>
     <g id="text_23">
      <text style="font: 7.5px 'Arial'; text-anchor: end" x="67.558125" y="289.087307" transform="rotate(-0 67.558125 289.087307)">−20</text>
     </g>
    </g>
    <g id="ytick_3">
     <g id="line2d_9">
      <g>
       <use xlink:href="#md045353712" x="74.558125" y="253.809185" style="stroke: #000000; stroke-width: 0.8"/>
      </g>
     </g>
     <g id="text_24">
      <text style="font: 7.5px 'Arial'; text-anchor: end" x="67.558125" y="256.493365" transform="rotate(-0 67.558125 256.493365)">0</text>
     </g>
    </g>
    <g id="ytick_4">
     <g id="line2d_10">
      <g>
       <use xlink:href="#md045353712" x="74.558125" y="221.215244" style="stroke: #000000; stroke-width: 0.8"/>
      </g>
     </g>
     <g id="text_25">
      <text style="font: 7.5px 'Arial'; text-anchor: end" x="67.558125" y="223.899423" transform="rotate(-0 67.558125 223.899423)">20</text>
     </g>
    </g>
    <g id="text_26">
     <text style="fill: #242424; font: 8px 'Arial'; text-anchor: middle" x="49.1525" y="268.731" transform="rotate(-90 49.1525 268.731)">Local y position (m)</text>
    </g>
   </g>
   <g id="line2d_11">
    <path d="M 157.631481 327.006 
L 156.858807 325.798449 
L 156.053408 324.710061 
L 155.408552 323.797932 
L 154.75166 322.778575 
L 153.994503 321.719829 
L 153.248288 320.683563 
L 152.504261 319.591992 
L 151.579699 318.321577 
L 150.707357 317.125563 
L 149.840785 315.877429 
L 148.995001 314.671867 
L 148.183833 313.454169 
L 147.548526 312.472412 
L 146.677875 311.254715 
L 145.81379 310.050148 
L 144.92046 308.878803 
L 144.037575 307.684182 
L 143.158868 306.440623 
L 142.268025 305.244809 
L 141.375989 304.030096 
L 140.568899 302.850993 
L 139.691981 301.696358 
L 138.843214 300.538939 
L 137.93387 299.226548 
L 137.04442 298.015217 
L 136.082656 296.799111 
L 135.178484 295.656214 
L 134.343444 294.502774 
L 133.513874 293.322278 
L 132.713747 292.267113 
L 131.860603 291.098951 
L 131.074401 289.990868 
L 130.252888 288.872242 
L 129.526069 287.822647 
L 128.768714 286.789962 
L 127.996736 285.732409 
L 127.22267 284.681024 
L 126.412994 283.616906 
L 125.592476 282.657032 
L 124.763204 281.666323 
L 123.960789 280.709035 
L 123.239839 279.822967 
L 122.418127 279.076553 
L 121.704538 278.304476 
L 120.954145 277.515091 
L 120.220165 276.802298 
L 119.436052 276.114769 
L 118.801242 275.281817 
L 118.18742 274.582353 
L 117.478307 273.920089 
L 116.741143 273.251062 
L 116.117076 272.646292 
L 115.504149 272.053656 
L 114.844174 271.449085 
L 114.166692 270.804527 
L 113.466829 270.165141 
L 112.780395 269.480995 
L 112.05666 268.736968 
L 111.31134 267.971854 
L 110.544236 267.178491 
L 109.731775 266.367621 
L 108.803233 265.398994 
L 107.789149 264.481294 
L 106.865481 263.540518 
L 105.95574 262.608694 
L 105.036449 261.718448 
L 104.211753 260.876345 
L 103.455989 260.069653 
L 102.726485 259.305136 
L 101.999566 258.479147 
L 101.31532 257.680014 
L 100.751929 257.039634 
L 100.159095 256.333406 
L 99.485194 255.497868 
L 98.753998 254.641839 
L 98.02708 253.794564 
L 97.344028 252.967182 
L 96.808189 252.302332 
L 96.325865 251.668318 
L 95.651765 250.799359 
L 95.014369 249.974961 
L 94.449485 249.184781 
L 93.905689 248.482531 
L 93.188221 247.76178 
L 92.460905 247.040432 
L 91.740552 246.306949 
L 91.177459 245.574063 
L 90.702296 244.819094 
L 90.174216 244.0689 
L 89.329129 243.593638 
L 88.523631 243.147819 
L 87.897673 242.403196 
L 87.274402 241.65519 
L 86.649837 240.917132 
L 86.016519 240.181858 
" clip-path="url(#p1051bce22b)" style="fill: none; stroke: #263850; stroke-width: 1.2; stroke-linecap: square"/>
   </g>
   <g id="line2d_12">
    <path d="M 132.958937 299.516201 
L 132.544451 298.963154 
L 132.141701 298.422243 
L 131.699364 297.847512 
L 131.278809 297.223047 
L 130.791014 296.570332 
L 130.237868 295.881809 
L 129.723714 295.223326 
L 129.153459 294.535399 
L 128.573755 293.784609 
L 128.003898 293.052518 
L 127.422304 292.336542 
L 126.845484 291.542781 
L 126.216543 290.733701 
L 125.587204 289.883442 
L 124.815425 289.15911 
L 124.148188 288.296715 
L 123.525812 287.40826 
L 122.868721 286.499911 
L 122.140012 285.666163 
L 121.49824 284.740705 
L 120.810015 283.82042 
L 120.062706 282.882826 
L 119.325443 281.945233 
L 118.617324 280.970439 
L 117.889014 280.030658 
L 117.076453 279.035373 
L 116.337002 278.080074 
L 115.613068 277.110452 
L 114.891322 276.069014 
L 114.105717 275.19329 
L 113.38427 274.208947 
L 112.605628 273.281698 
L 111.761834 272.422885 
L 111.022184 271.574615 
L 110.329781 270.647366 
L 109.603957 269.80029 
L 108.877935 268.95003 
L 108.156189 268.089625 
L 107.411963 267.220864 
L 106.889553 266.19355 
L 106.198145 265.341103 
L 105.556074 264.505764 
L 105.050176 263.537534 
L 104.467587 262.653654 
L 103.865204 261.70691 
L 103.108047 260.893852 
L 102.413058 260.098698 
L 101.822611 259.164686 
L 101.141847 258.37928 
L 100.52703 257.431342 
L 99.911119 256.448988 
L 99.250945 255.57605 
L 98.630259 254.702714 
L 97.9485 253.823807 
L 97.320255 252.865525 
L 96.719165 251.987812 
L 96.079381 251.066134 
L 95.454021 250.155397 
L 94.858402 249.244462 
L 94.429094 248.582 
L 93.845809 247.686183 
L 93.252577 246.675978 
L 92.652482 245.727245 
L 92.253015 244.880367 
L 91.695492 243.942774 
L 91.173181 242.998815 
L 91.009655 241.890136 
L 90.482669 240.983975 
L 90.010192 240.077018 
L 89.473558 239.14977 
L 89.931214 237.431744 
L 89.960358 236.159936 
L 89.9338 235.118497 
L 89.848854 234.412667 
L 89.863575 233.658693 
L 89.737548 233.182038 
L 89.66593 231.48331 
L 89.775843 230.033651 
L 90.03118 228.220335 
L 90.149548 226.899986 
L 90.390959 225.761466 
L 90.655844 224.696553 
L 90.842845 223.666056 
L 91.13419 222.633569 
L 91.487304 221.675884 
L 91.852156 220.634644 
L 92.28196 219.569731 
L 92.803376 218.484526 
L 93.264911 217.42757 
L 93.798959 216.320681 
L 94.387516 215.149337 
L 95.00104 213.973217 
L 95.665989 212.7967 
L 96.350135 211.605661 
L 97.025429 210.456 
" clip-path="url(#p1051bce22b)" style="fill: none; stroke-dasharray: 4.44,1.92; stroke-dashoffset: 0; stroke: #4b5c9b; stroke-width: 1.2"/>
   </g>
   <g id="patch_25">
    <path d="M 74.558125 345.654 
L 74.558125 191.808 
" style="fill: none; stroke: #000000; stroke-width: 0.7; stroke-linejoin: miter; stroke-linecap: square"/>
   </g>
   <g id="patch_26">
    <path d="M 74.558125 345.654 
L 169.089875 345.654 
" style="fill: none; stroke: #000000; stroke-width: 0.7; stroke-linejoin: miter; stroke-linecap: square"/>
   </g>
   <g id="patch_27">
    <path d="M 117.572953 238.886993 
Q 111.008875 244.096243 104.444797 249.305494 
" style="fill: none; stroke: #000000; stroke-width: 0.7; stroke-linecap: round"/>
   </g>
   <g id="text_27">
    <text style="fill: #242424; font: 7px 'Arial'; text-anchor: middle" x="125.692641" y="234.25282" transform="rotate(-0 125.692641 234.25282)">Conflict zone</text>
   </g>
   <g id="text_28">
    <text style="fill: #242424; font: 6.6px 'Arial'; text-anchor: end" x="153.631481" y="340.006" transform="rotate(-0 153.631481 340.006)">13.2 s</text>
   </g>
   <g id="text_29">
    <text style="fill: #242424; font: 6.6px 'Arial'; text-anchor: end" x="102.05666" y="278.736968" transform="rotate(-0 102.05666 278.736968)">19.0 s</text>
   </g>
   <g id="text_30">
    <text style="fill: #242424; font: 6.6px 'Arial'; text-anchor: middle" x="90.702296" y="234.819094" transform="rotate(-0 90.702296 234.819094)">22.0 s</text>
   </g>
   <g id="patch_28">
    <path d="M 86.606217 240.878195 
Q 86.311368 240.530027 86.6668 240.949735 
" style="fill: none; stroke: #263850; stroke-width: 0.9; stroke-linecap: round"/>
    <path d="M 87.51382 244.425732 
L 86.6668 240.949735 
L 89.95581 242.357717 
z
" style="fill: #263850; stroke: #263850; stroke-width: 0.9; stroke-linecap: round"/>
   </g>
   <g id="patch_29">
    <path d="M 95.999396 212.238652 
Q 96.014426 212.212539 95.527508 213.05852 
" style="fill: none; stroke: #4b5c9b; stroke-width: 0.9; stroke-linecap: round"/>
    <path d="M 92.544511 215.033799 
L 95.527508 213.05852 
L 95.317933 216.630086 
z
" style="fill: #4b5c9b; stroke: #4b5c9b; stroke-width: 0.9; stroke-linecap: round"/>
   </g>
   <g id="PathCollection_1">
    <defs>
     <path id="m627b6d81a2" d="M 0 2.397916 
C 0.635935 2.397916 1.245909 2.145256 1.695582 1.695582 
C 2.145256 1.245909 2.397916 0.635935 2.397916 0 
C 2.397916 -0.635935 2.145256 -1.245909 1.695582 -1.695582 
C 1.245909 -2.145256 0.635935 -2.397916 0 -2.397916 
C -0.635935 -2.397916 -1.245909 -2.145256 -1.695582 -1.695582 
C -2.145256 -1.245909 -2.397916 -0.635935 -2.397916 0 
C -2.397916 0.635935 -2.145256 1.245909 -1.695582 1.695582 
C -1.245909 2.145256 -0.635935 2.397916 0 2.397916 
z
" style="stroke: #263850"/>
    </defs>
    <g clip-path="url(#p1051bce22b)">
     <use xlink:href="#m627b6d81a2" x="157.631481" y="327.006" style="fill: #ffffff; stroke: #263850"/>
    </g>
   </g>
   <g id="PathCollection_2">
    <defs>
     <path id="mbd4cf69912" d="M -2.397916 2.397916 
L 2.397916 2.397916 
L 2.397916 -2.397916 
L -2.397916 -2.397916 
z
" style="stroke: #4b5c9b"/>
    </defs>
    <g clip-path="url(#p1051bce22b)">
     <use xlink:href="#mbd4cf69912" x="132.958937" y="299.516201" style="fill: #ffffff; stroke: #4b5c9b"/>
    </g>
   </g>
   <g id="PathCollection_3">
    <g clip-path="url(#p1051bce22b)">
     <use xlink:href="#m627b6d81a2" x="112.05666" y="268.736968" style="fill: #ffffff; stroke: #263850"/>
    </g>
   </g>
   <g id="PathCollection_4">
    <g clip-path="url(#p1051bce22b)">
     <use xlink:href="#mbd4cf69912" x="95.454021" y="250.155397" style="fill: #ffffff; stroke: #4b5c9b"/>
    </g>
   </g>
   <g id="PathCollection_5">
    <g clip-path="url(#p1051bce22b)">
     <use xlink:href="#m627b6d81a2" x="90.702296" y="244.819094" style="fill: #ffffff; stroke: #263850"/>
    </g>
   </g>
   <g id="PathCollection_6">
    <g clip-path="url(#p1051bce22b)">
     <use xlink:href="#mbd4cf69912" x="92.803376" y="218.484526" style="fill: #ffffff; stroke: #4b5c9b"/>
    </g>
   </g>
   <g id="legend_1">
    <g id="line2d_13">
     <path d="M 98.000187 197.435578 
L 103.850187 197.435578 
L 109.700187 197.435578 
" style="fill: none; stroke: #263850; stroke-width: 1.2; stroke-linecap: square"/>
    </g>
    <g id="text_31">
     <text style="fill: #242424; font: 6.5px 'Arial'; text-anchor: start" x="114.900187" y="199.710578" transform="rotate(-0 114.900187 199.710578)">Monitored vehicle</text>
    </g>
    <g id="line2d_14">
     <path d="M 98.000187 206.70925 
L 103.850187 206.70925 
L 109.700187 206.70925 
" style="fill: none; stroke-dasharray: 4.44,1.92; stroke-dashoffset: 0; stroke: #4b5c9b; stroke-width: 1.2"/>
    </g>
    <g id="text_32">
     <text style="fill: #242424; font: 6.5px 'Arial'; text-anchor: start" x="114.900187" y="208.98425" transform="rotate(-0 114.900187 208.98425)">Counterpart</text>
    </g>
   </g>
  </g>
  <g id="axes_3">
   <g id="patch_30">
    <path d="M 251.424 345.654 
L 502.848 345.654 
L 502.848 191.808 
L 251.424 191.808 
z
" style="fill: #ffffff"/>
   </g>
   <g id="PolyCollection_1">
    <path d="M 298.299661 218.955355 
L 298.299661 333.256663 
L 300.430373 333.263356 
L 302.561085 333.263356 
L 304.691797 333.280106 
L 306.822508 333.280106 
L 308.95322 333.287564 
L 311.083932 333.287564 
L 313.214644 333.287564 
L 315.345356 333.287564 
L 317.476068 333.286271 
L 319.60678 333.286271 
L 321.737492 333.699098 
L 323.868203 333.699098 
L 325.998915 333.699098 
L 328.129627 333.699291 
L 330.260339 333.698545 
L 332.391051 333.699291 
L 334.521763 333.699291 
L 336.652475 333.699291 
L 338.783186 333.699291 
L 340.913898 333.701466 
L 343.04461 333.701814 
L 345.175322 333.711582 
L 347.306034 332.900722 
L 349.436746 333.234958 
L 351.567458 333.937825 
L 353.698169 333.234958 
L 355.828881 333.234958 
L 357.959593 333.247751 
L 360.090305 333.318768 
L 362.221017 334.351914 
L 364.351729 334.359244 
L 366.482441 334.359244 
L 368.613153 334.368253 
L 370.743864 334.368253 
L 372.874576 334.35804 
L 375.005288 333.335988 
L 377.136 333.241676 
L 379.266712 333.241676 
L 379.266712 217.550254 
L 379.266712 217.550254 
L 377.136 217.550254 
L 375.005288 217.550254 
L 372.874576 217.550254 
L 370.743864 214.754852 
L 368.613153 215.453273 
L 366.482441 215.453273 
L 364.351729 215.652817 
L 362.221017 215.652817 
L 360.090305 215.652817 
L 357.959593 218.955355 
L 355.828881 218.955355 
L 353.698169 218.955355 
L 351.567458 218.955355 
L 349.436746 218.955355 
L 347.306034 218.955355 
L 345.175322 218.955355 
L 343.04461 218.955355 
L 340.913898 216.15995 
L 338.783186 216.15995 
L 336.652475 216.15995 
L 334.521763 216.15995 
L 332.391051 216.15995 
L 330.260339 216.15995 
L 328.129627 216.15995 
L 325.998915 216.15995 
L 323.868203 216.15995 
L 321.737492 216.15995 
L 319.60678 216.15995 
L 317.476068 216.15995 
L 315.345356 216.15995 
L 313.214644 216.15995 
L 311.083932 218.955355 
L 308.95322 218.955355 
L 306.822508 218.955355 
L 304.691797 218.955355 
L 302.561085 218.955355 
L 300.430373 218.955355 
L 298.299661 218.955355 
z
" clip-path="url(#pd6e79ff1dd)" style="fill: #2c737a; fill-opacity: 0.15"/>
    <path d="M 385.658847 217.550254 
L 385.658847 333.955046 
L 387.789559 334.451239 
L 389.920271 334.488002 
L 392.050983 334.482861 
L 394.181695 335.032864 
L 396.312407 335.032864 
L 398.443119 334.584457 
L 400.573831 334.584457 
L 400.573831 214.922221 
L 400.573831 214.922221 
L 398.443119 214.922221 
L 396.312407 215.251258 
L 394.181695 215.251258 
L 392.050983 215.251258 
L 389.920271 216.798361 
L 387.789559 216.798361 
L 385.658847 217.550254 
z
" clip-path="url(#pd6e79ff1dd)" style="fill: #2c737a; fill-opacity: 0.15"/>
    <path d="M 404.835254 214.922221 
L 404.835254 336.243334 
L 406.965966 334.459296 
L 409.096678 334.394006 
L 411.22739 334.352693 
L 413.358102 333.728262 
L 413.358102 214.922221 
L 413.358102 214.922221 
L 411.22739 214.922221 
L 409.096678 214.922221 
L 406.965966 214.922221 
L 404.835254 214.922221 
z
" clip-path="url(#pd6e79ff1dd)" style="fill: #2c737a; fill-opacity: 0.15"/>
    <path d="M 417.619525 214.922221 
L 417.619525 326.262235 
L 419.750237 323.318615 
L 421.880949 319.044121 
L 424.011661 317.838481 
L 426.142373 317.838481 
L 428.273085 317.838481 
L 430.403797 318.295552 
L 432.534508 318.295552 
L 434.66522 323.52405 
L 434.66522 214.730032 
L 434.66522 214.730032 
L 432.534508 214.093233 
L 430.403797 214.888251 
L 428.273085 214.888251 
L 426.142373 214.888251 
L 424.011661 214.888251 
L 421.880949 214.922221 
L 419.750237 214.922221 
L 417.619525 214.922221 
z
" clip-path="url(#pd6e79ff1dd)" style="fill: #2c737a; fill-opacity: 0.15"/>
   </g>
   <g id="matplotlib.axis_3">
    <g id="xtick_4">
     <g id="line2d_15">
      <g>
       <use xlink:href="#m8f1a78aca8" x="272.731119" y="345.654" style="stroke: #000000; stroke-width: 0.8"/>
      </g>
     </g>
     <g id="text_33">
      <text style="font: 7.5px 'Arial'; text-anchor: middle" x="272.731119" y="358.022359" transform="rotate(-0 272.731119 358.022359)">12</text>
     </g>
    </g>
    <g id="xtick_5">
     <g id="line2d_16">
      <g>
       <use xlink:href="#m8f1a78aca8" x="315.345356" y="345.654" style="stroke: #000000; stroke-width: 0.8"/>
      </g>
     </g>
     <g id="text_34">
      <text style="font: 7.5px 'Arial'; text-anchor: middle" x="315.345356" y="358.022359" transform="rotate(-0 315.345356 358.022359)">14</text>
     </g>
    </g>
    <g id="xtick_6">
     <g id="line2d_17">
      <g>
       <use xlink:href="#m8f1a78aca8" x="357.959593" y="345.654" style="stroke: #000000; stroke-width: 0.8"/>
      </g>
     </g>
     <g id="text_35">
      <text style="font: 7.5px 'Arial'; text-anchor: middle" x="357.959593" y="358.022359" transform="rotate(-0 357.959593 358.022359)">16</text>
     </g>
    </g>
    <g id="xtick_7">
     <g id="line2d_18">
      <g>
       <use xlink:href="#m8f1a78aca8" x="400.573831" y="345.654" style="stroke: #000000; stroke-width: 0.8"/>
      </g>
     </g>
     <g id="text_36">
      <text style="font: 7.5px 'Arial'; text-anchor: middle" x="400.573831" y="358.022359" transform="rotate(-0 400.573831 358.022359)">18</text>
     </g>
    </g>
    <g id="xtick_8">
     <g id="line2d_19">
      <g>
       <use xlink:href="#m8f1a78aca8" x="443.188068" y="345.654" style="stroke: #000000; stroke-width: 0.8"/>
      </g>
     </g>
     <g id="text_37">
      <text style="font: 7.5px 'Arial'; text-anchor: middle" x="443.188068" y="358.022359" transform="rotate(-0 443.188068 358.022359)">20</text>
     </g>
    </g>
    <g id="xtick_9">
     <g id="line2d_20">
      <g>
       <use xlink:href="#m8f1a78aca8" x="485.802305" y="345.654" style="stroke: #000000; stroke-width: 0.8"/>
      </g>
     </g>
     <g id="text_38">
      <text style="font: 7.5px 'Arial'; text-anchor: middle" x="485.802305" y="358.022359" transform="rotate(-0 485.802305 358.022359)">22</text>
     </g>
    </g>
    <g id="text_39">
     <text style="fill: #242424; font: 8px 'Arial'; text-anchor: middle" x="377.136" y="369.336734" transform="rotate(-0 377.136 369.336734)">Time in the interaction (s)</text>
    </g>
   </g>
   <g id="matplotlib.axis_4">
    <g id="ytick_5">
     <g id="line2d_21">
      <g>
       <use xlink:href="#md045353712" x="251.424" y="324.061579" style="stroke: #000000; stroke-width: 0.8"/>
      </g>
     </g>
     <g id="text_40">
      <text style="font: 7.5px 'Arial'; text-anchor: end" x="244.424" y="326.745759" transform="rotate(-0 244.424 326.745759)">−1.0</text>
     </g>
    </g>
    <g id="ytick_6">
     <g id="line2d_22">
      <g>
       <use xlink:href="#md045353712" x="251.424" y="297.071053" style="stroke: #000000; stroke-width: 0.8"/>
      </g>
     </g>
     <g id="text_41">
      <text style="font: 7.5px 'Arial'; text-anchor: end" x="244.424" y="299.755232" transform="rotate(-0 244.424 299.755232)">−0.5</text>
     </g>
    </g>
    <g id="ytick_7">
     <g id="line2d_23">
      <g>
       <use xlink:href="#md045353712" x="251.424" y="270.080526" style="stroke: #000000; stroke-width: 0.8"/>
      </g>
     </g>
     <g id="text_42">
      <text style="font: 7.5px 'Arial'; text-anchor: end" x="244.424" y="272.764706" transform="rotate(-0 244.424 272.764706)">0.0</text>
     </g>
    </g>
    <g id="ytick_8">
     <g id="line2d_24">
      <g>
       <use xlink:href="#md045353712" x="251.424" y="243.09" style="stroke: #000000; stroke-width: 0.8"/>
      </g>
     </g>
     <g id="text_43">
      <text style="font: 7.5px 'Arial'; text-anchor: end" x="244.424" y="245.77418" transform="rotate(-0 244.424 245.77418)">0.5</text>
     </g>
    </g>
    <g id="ytick_9">
     <g id="line2d_25">
      <g>
       <use xlink:href="#md045353712" x="251.424" y="216.099474" style="stroke: #000000; stroke-width: 0.8"/>
      </g>
     </g>
     <g id="text_44">
      <text style="font: 7.5px 'Arial'; text-anchor: end" x="244.424" y="218.783653" transform="rotate(-0 244.424 218.783653)">1.0</text>
     </g>
    </g>
    <g id="text_45">
     <text style="fill: #242424; font: 8px 'Arial'; text-anchor: middle" x="223.934781" y="268.731" transform="rotate(-90 223.934781 268.731)">IPV reading (rad)</text>
    </g>
   </g>
   <g id="line2d_26">
    <path d="M 298.299661 333.256663 
L 319.60678 333.286271 
L 321.737492 333.699098 
L 345.175322 333.711582 
L 347.306034 332.900722 
L 349.436746 333.234958 
L 351.567458 333.937825 
L 353.698169 333.234958 
L 360.090305 333.318768 
L 362.221017 334.351914 
L 372.874576 334.35804 
L 375.005288 333.335988 
L 379.266712 333.241676 
M 385.658847 333.955046 
L 387.789559 334.451239 
L 392.050983 334.482861 
L 394.181695 335.032864 
L 396.312407 335.032864 
L 398.443119 334.584457 
L 400.573831 334.584457 
M 404.835254 336.243334 
L 406.965966 334.459296 
L 411.22739 334.352693 
L 413.358102 333.728262 
M 417.619525 326.262235 
L 419.750237 323.318615 
L 421.880949 319.044121 
L 424.011661 317.838481 
L 428.273085 317.838481 
L 430.403797 318.295552 
L 432.534508 318.295552 
L 434.66522 323.52405 
L 434.66522 323.52405 
" clip-path="url(#pd6e79ff1dd)" style="fill: none; stroke: #2c737a; stroke-width: 0.7; stroke-linecap: square"/>
   </g>
   <g id="line2d_27">
    <path d="M 298.299661 218.955355 
L 311.083932 218.955355 
L 313.214644 216.15995 
L 340.913898 216.15995 
L 343.04461 218.955355 
L 357.959593 218.955355 
L 360.090305 215.652817 
L 364.351729 215.652817 
L 366.482441 215.453273 
L 368.613153 215.453273 
L 370.743864 214.754852 
L 372.874576 217.550254 
L 379.266712 217.550254 
M 385.658847 217.550254 
L 387.789559 216.798361 
L 389.920271 216.798361 
L 392.050983 215.251258 
L 396.312407 215.251258 
L 398.443119 214.922221 
L 400.573831 214.922221 
M 404.835254 214.922221 
L 413.358102 214.922221 
M 417.619525 214.922221 
L 430.403797 214.888251 
L 432.534508 214.093233 
L 434.66522 214.730032 
L 434.66522 214.730032 
" clip-path="url(#pd6e79ff1dd)" style="fill: none; stroke: #2c737a; stroke-width: 0.7; stroke-linecap: square"/>
   </g>
   <g id="line2d_28">
    <path d="M 298.299661 260.927874 
L 300.430373 258.223399 
L 304.691797 256.456051 
L 306.822508 255.480782 
L 308.95322 254.756479 
L 311.083932 249.885177 
L 313.214644 252.743035 
L 315.345356 250.938491 
L 317.476068 247.062938 
L 319.60678 249.986541 
L 321.737492 251.876509 
L 323.868203 250.65138 
L 325.998915 247.300063 
L 328.129627 249.025353 
L 330.260339 248.806286 
L 334.521763 250.022843 
L 336.652475 249.38275 
L 338.783186 247.952109 
L 340.913898 249.753346 
L 343.04461 249.428336 
L 345.175322 249.625531 
L 347.306034 248.84731 
L 349.436746 247.719913 
L 351.567458 249.213471 
L 353.698169 248.352092 
L 355.828881 244.588223 
L 357.959593 249.215805 
L 360.090305 248.153583 
L 362.221017 242.213272 
L 364.351729 248.886784 
L 366.482441 245.173854 
L 368.613153 242.365116 
L 370.743864 242.722729 
L 372.874576 245.529461 
L 375.005288 233.217994 
L 377.136 228.63856 
L 379.266712 228.418327 
M 385.658847 229.904923 
L 387.789559 231.964992 
L 389.920271 233.147778 
L 392.050983 237.052473 
L 394.181695 250.838931 
L 396.312407 259.394579 
L 398.443119 269.556098 
L 400.573831 278.70877 
M 404.835254 287.140934 
L 406.965966 291.50095 
L 409.096678 294.499915 
L 411.22739 291.410364 
L 413.358102 291.526537 
M 417.619525 246.041724 
L 419.750237 206.485614 
L 421.880949 207.250504 
L 424.011661 226.441527 
L 426.142373 247.062171 
L 428.273085 250.263563 
L 430.403797 249.295766 
L 432.534508 252.422959 
L 434.66522 263.175733 
L 434.66522 263.175733 
" clip-path="url(#pd6e79ff1dd)" style="fill: none; stroke: #263850; stroke-width: 0.9; stroke-linecap: square"/>
   </g>
   <g id="line2d_29">
    <path d="M 298.299661 345.654 
L 298.299661 191.808 
" clip-path="url(#pd6e79ff1dd)" style="fill: none; stroke-dasharray: 0.5,0.825; stroke-dashoffset: 0; stroke: #263850; stroke-opacity: 0.7; stroke-width: 0.5"/>
   </g>
   <g id="line2d_30">
    <path d="M 421.880949 345.654 
L 421.880949 191.808 
" clip-path="url(#pd6e79ff1dd)" style="fill: none; stroke-dasharray: 0.5,0.825; stroke-dashoffset: 0; stroke: #263850; stroke-opacity: 0.7; stroke-width: 0.5"/>
   </g>
   <g id="line2d_31">
    <path d="M 485.802305 345.654 
L 485.802305 191.808 
" clip-path="url(#pd6e79ff1dd)" style="fill: none; stroke-dasharray: 0.5,0.825; stroke-dashoffset: 0; stroke: #263850; stroke-opacity: 0.7; stroke-width: 0.5"/>
   </g>
   <g id="patch_31">
    <path d="M 251.424 345.654 
L 251.424 191.808 
" style="fill: none; stroke: #000000; stroke-width: 0.7; stroke-linejoin: miter; stroke-linecap: square"/>
   </g>
   <g id="patch_32">
    <path d="M 251.424 345.654 
L 502.848 345.654 
" style="fill: none; stroke: #000000; stroke-width: 0.7; stroke-linejoin: miter; stroke-linecap: square"/>
   </g>
   <g id="text_46">
    <text style="fill: #242424; font: 6.5px 'Arial'; text-anchor: middle" x="298.299661" y="199.365347" transform="rotate(-0 298.299661 199.365347)">13.2 s</text>
   </g>
   <g id="text_47">
    <text style="fill: #242424; font: 6.5px 'Arial'; text-anchor: middle" x="421.880949" y="199.365347" transform="rotate(-0 421.880949 199.365347)">19.0 s</text>
   </g>
   <g id="text_48">
    <text style="fill: #242424; font: 6.5px 'Arial'; text-anchor: middle" x="485.802305" y="199.365347" transform="rotate(-0 485.802305 199.365347)">22.0 s</text>
   </g>
   <g id="text_49">
    <text style="fill: #2c737a; font: 7px 'Arial'; text-anchor: start" x="308.95322" y="320.282905" transform="rotate(-0 308.95322 320.282905)">90% human range</text>
   </g>
   <g id="patch_33">
    <path d="M 441.489065 229.246542 
Q 432.351616 218.997 423.214167 208.747459 
" style="fill: none; stroke: #d98884; stroke-width: 0.6; stroke-linecap: round"/>
   </g>
   <g id="text_50">
    <text style="fill: #d98884; font: 6.8px 'Arial'; text-anchor: middle" x="447.449492" y="237.691895" transform="rotate(-0 447.449492 237.691895)">C · accommodating side</text>
   </g>
   <g id="text_51">
    <text style="fill: #242424; font: 6.6px 'Arial'; text-anchor: start" x="253.93824" y="381.80781" transform="rotate(-0 253.93824 381.80781)">State:  W inside     C accommodating     grey abstention</text>
   </g>
   <g id="PathCollection_7">
    <path d="M -0 401.836068 
L 2.236068 397.363932 
L -2.236068 397.363932 
z
" clip-path="url(#pd6e79ff1dd)" style="fill: #b64342"/>
   </g>
   <g id="PathCollection_8">
    <path d="M 419.750237 203.936105 
L 417.200728 209.035124 
L 422.299747 209.035124 
z
" clip-path="url(#pd6e79ff1dd)" style="fill: #d98884"/>
    <path d="M 421.880949 204.700994 
L 419.331439 209.800014 
L 424.430459 209.800014 
z
" clip-path="url(#pd6e79ff1dd)" style="fill: #d98884"/>
   </g>
   <g id="PathCollection_9">
    <defs>
     <path id="C0_0_ba1fce758f" d="M 0 1.322876 
C 0.350831 1.322876 0.68734 1.183489 0.935414 0.935414 
C 1.183489 0.68734 1.322876 0.350831 1.322876 -0 
C 1.322876 -0.350831 1.183489 -0.68734 0.935414 -0.935414 
C 0.68734 -1.183489 0.350831 -1.322876 0 -1.322876 
C -0.350831 -1.322876 -0.68734 -1.183489 -0.935414 -0.935414 
C -1.183489 -0.68734 -1.322876 -0.350831 -1.322876 0 
C -1.322876 0.350831 -1.183489 0.68734 -0.935414 0.935414 
C -0.68734 1.183489 -0.350831 1.322876 0 1.322876 
z
"/>
    </defs>
    <g clip-path="url(#pd6e79ff1dd)">
     <use xlink:href="#C0_0_ba1fce758f" x="298.299661" y="260.927874" style="fill: #2c737a"/>
    </g>
    <g clip-path="url(#pd6e79ff1dd)">
     <use xlink:href="#C0_0_ba1fce758f" x="300.430373" y="258.223399" style="fill: #2c737a"/>
    </g>
    <g clip-path="url(#pd6e79ff1dd)">
     <use xlink:href="#C0_0_ba1fce758f" x="302.561085" y="257.383109" style="fill: #2c737a"/>
    </g>
    <g clip-path="url(#pd6e79ff1dd)">
     <use xlink:href="#C0_0_ba1fce758f" x="304.691797" y="256.456051" style="fill: #2c737a"/>
    </g>
    <g clip-path="url(#pd6e79ff1dd)">
     <use xlink:href="#C0_0_ba1fce758f" x="306.822508" y="255.480782" style="fill: #2c737a"/>
    </g>
    <g clip-path="url(#pd6e79ff1dd)">
     <use xlink:href="#C0_0_ba1fce758f" x="308.95322" y="254.756479" style="fill: #2c737a"/>
    </g>
    <g clip-path="url(#pd6e79ff1dd)">
     <use xlink:href="#C0_0_ba1fce758f" x="311.083932" y="249.885177" style="fill: #2c737a"/>
    </g>
    <g clip-path="url(#pd6e79ff1dd)">
     <use xlink:href="#C0_0_ba1fce758f" x="313.214644" y="252.743035" style="fill: #2c737a"/>
    </g>
    <g clip-path="url(#pd6e79ff1dd)">
     <use xlink:href="#C0_0_ba1fce758f" x="315.345356" y="250.938491" style="fill: #2c737a"/>
    </g>
    <g clip-path="url(#pd6e79ff1dd)">
     <use xlink:href="#C0_0_ba1fce758f" x="317.476068" y="247.062938" style="fill: #2c737a"/>
    </g>
    <g clip-path="url(#pd6e79ff1dd)">
     <use xlink:href="#C0_0_ba1fce758f" x="319.60678" y="249.986541" style="fill: #2c737a"/>
    </g>
    <g clip-path="url(#pd6e79ff1dd)">
     <use xlink:href="#C0_0_ba1fce758f" x="321.737492" y="251.876509" style="fill: #2c737a"/>
    </g>
    <g clip-path="url(#pd6e79ff1dd)">
     <use xlink:href="#C0_0_ba1fce758f" x="323.868203" y="250.65138" style="fill: #2c737a"/>
    </g>
    <g clip-path="url(#pd6e79ff1dd)">
     <use xlink:href="#C0_0_ba1fce758f" x="325.998915" y="247.300063" style="fill: #2c737a"/>
    </g>
    <g clip-path="url(#pd6e79ff1dd)">
     <use xlink:href="#C0_0_ba1fce758f" x="328.129627" y="249.025353" style="fill: #2c737a"/>
    </g>
    <g clip-path="url(#pd6e79ff1dd)">
     <use xlink:href="#C0_0_ba1fce758f" x="330.260339" y="248.806286" style="fill: #2c737a"/>
    </g>
    <g clip-path="url(#pd6e79ff1dd)">
     <use xlink:href="#C0_0_ba1fce758f" x="332.391051" y="249.367505" style="fill: #2c737a"/>
    </g>
    <g clip-path="url(#pd6e79ff1dd)">
     <use xlink:href="#C0_0_ba1fce758f" x="334.521763" y="250.022843" style="fill: #2c737a"/>
    </g>
    <g clip-path="url(#pd6e79ff1dd)">
     <use xlink:href="#C0_0_ba1fce758f" x="336.652475" y="249.38275" style="fill: #2c737a"/>
    </g>
    <g clip-path="url(#pd6e79ff1dd)">
     <use xlink:href="#C0_0_ba1fce758f" x="338.783186" y="247.952109" style="fill: #2c737a"/>
    </g>
    <g clip-path="url(#pd6e79ff1dd)">
     <use xlink:href="#C0_0_ba1fce758f" x="340.913898" y="249.753346" style="fill: #2c737a"/>
    </g>
    <g clip-path="url(#pd6e79ff1dd)">
     <use xlink:href="#C0_0_ba1fce758f" x="343.04461" y="249.428336" style="fill: #2c737a"/>
    </g>
    <g clip-path="url(#pd6e79ff1dd)">
     <use xlink:href="#C0_0_ba1fce758f" x="345.175322" y="249.625531" style="fill: #2c737a"/>
    </g>
    <g clip-path="url(#pd6e79ff1dd)">
     <use xlink:href="#C0_0_ba1fce758f" x="347.306034" y="248.84731" style="fill: #2c737a"/>
    </g>
    <g clip-path="url(#pd6e79ff1dd)">
     <use xlink:href="#C0_0_ba1fce758f" x="349.436746" y="247.719913" style="fill: #2c737a"/>
    </g>
    <g clip-path="url(#pd6e79ff1dd)">
     <use xlink:href="#C0_0_ba1fce758f" x="351.567458" y="249.213471" style="fill: #2c737a"/>
    </g>
    <g clip-path="url(#pd6e79ff1dd)">
     <use xlink:href="#C0_0_ba1fce758f" x="353.698169" y="248.352092" style="fill: #2c737a"/>
    </g>
    <g clip-path="url(#pd6e79ff1dd)">
     <use xlink:href="#C0_0_ba1fce758f" x="355.828881" y="244.588223" style="fill: #2c737a"/>
    </g>
    <g clip-path="url(#pd6e79ff1dd)">
     <use xlink:href="#C0_0_ba1fce758f" x="357.959593" y="249.215805" style="fill: #2c737a"/>
    </g>
    <g clip-path="url(#pd6e79ff1dd)">
     <use xlink:href="#C0_0_ba1fce758f" x="360.090305" y="248.153583" style="fill: #2c737a"/>
    </g>
    <g clip-path="url(#pd6e79ff1dd)">
     <use xlink:href="#C0_0_ba1fce758f" x="362.221017" y="242.213272" style="fill: #2c737a"/>
    </g>
    <g clip-path="url(#pd6e79ff1dd)">
     <use xlink:href="#C0_0_ba1fce758f" x="364.351729" y="248.886784" style="fill: #2c737a"/>
    </g>
    <g clip-path="url(#pd6e79ff1dd)">
     <use xlink:href="#C0_0_ba1fce758f" x="366.482441" y="245.173854" style="fill: #2c737a"/>
    </g>
    <g clip-path="url(#pd6e79ff1dd)">
     <use xlink:href="#C0_0_ba1fce758f" x="368.613153" y="242.365116" style="fill: #2c737a"/>
    </g>
    <g clip-path="url(#pd6e79ff1dd)">
     <use xlink:href="#C0_0_ba1fce758f" x="370.743864" y="242.722729" style="fill: #2c737a"/>
    </g>
    <g clip-path="url(#pd6e79ff1dd)">
     <use xlink:href="#C0_0_ba1fce758f" x="372.874576" y="245.529461" style="fill: #2c737a"/>
    </g>
    <g clip-path="url(#pd6e79ff1dd)">
     <use xlink:href="#C0_0_ba1fce758f" x="375.005288" y="233.217994" style="fill: #2c737a"/>
    </g>
    <g clip-path="url(#pd6e79ff1dd)">
     <use xlink:href="#C0_0_ba1fce758f" x="377.136" y="228.63856" style="fill: #2c737a"/>
    </g>
    <g clip-path="url(#pd6e79ff1dd)">
     <use xlink:href="#C0_0_ba1fce758f" x="379.266712" y="228.418327" style="fill: #2c737a"/>
    </g>
    <g clip-path="url(#pd6e79ff1dd)">
     <use xlink:href="#C0_0_ba1fce758f" x="385.658847" y="229.904923" style="fill: #2c737a"/>
    </g>
    <g clip-path="url(#pd6e79ff1dd)">
     <use xlink:href="#C0_0_ba1fce758f" x="387.789559" y="231.964992" style="fill: #2c737a"/>
    </g>
    <g clip-path="url(#pd6e79ff1dd)">
     <use xlink:href="#C0_0_ba1fce758f" x="389.920271" y="233.147778" style="fill: #2c737a"/>
    </g>
    <g clip-path="url(#pd6e79ff1dd)">
     <use xlink:href="#C0_0_ba1fce758f" x="392.050983" y="237.052473" style="fill: #2c737a"/>
    </g>
    <g clip-path="url(#pd6e79ff1dd)">
     <use xlink:href="#C0_0_ba1fce758f" x="394.181695" y="250.838931" style="fill: #2c737a"/>
    </g>
    <g clip-path="url(#pd6e79ff1dd)">
     <use xlink:href="#C0_0_ba1fce758f" x="396.312407" y="259.394579" style="fill: #2c737a"/>
    </g>
    <g clip-path="url(#pd6e79ff1dd)">
     <use xlink:href="#C0_0_ba1fce758f" x="398.443119" y="269.556098" style="fill: #2c737a"/>
    </g>
    <g clip-path="url(#pd6e79ff1dd)">
     <use xlink:href="#C0_0_ba1fce758f" x="400.573831" y="278.70877" style="fill: #2c737a"/>
    </g>
    <g clip-path="url(#pd6e79ff1dd)">
     <use xlink:href="#C0_0_ba1fce758f" x="404.835254" y="287.140934" style="fill: #2c737a"/>
    </g>
    <g clip-path="url(#pd6e79ff1dd)">
     <use xlink:href="#C0_0_ba1fce758f" x="406.965966" y="291.50095" style="fill: #2c737a"/>
    </g>
    <g clip-path="url(#pd6e79ff1dd)">
     <use xlink:href="#C0_0_ba1fce758f" x="409.096678" y="294.499915" style="fill: #2c737a"/>
    </g>
    <g clip-path="url(#pd6e79ff1dd)">
     <use xlink:href="#C0_0_ba1fce758f" x="411.22739" y="291.410364" style="fill: #2c737a"/>
    </g>
    <g clip-path="url(#pd6e79ff1dd)">
     <use xlink:href="#C0_0_ba1fce758f" x="413.358102" y="291.526537" style="fill: #2c737a"/>
    </g>
    <g clip-path="url(#pd6e79ff1dd)">
     <use xlink:href="#C0_0_ba1fce758f" x="417.619525" y="246.041724" style="fill: #2c737a"/>
    </g>
    <g clip-path="url(#pd6e79ff1dd)">
     <use xlink:href="#C0_0_ba1fce758f" x="424.011661" y="226.441527" style="fill: #2c737a"/>
    </g>
    <g clip-path="url(#pd6e79ff1dd)">
     <use xlink:href="#C0_0_ba1fce758f" x="426.142373" y="247.062171" style="fill: #2c737a"/>
    </g>
    <g clip-path="url(#pd6e79ff1dd)">
     <use xlink:href="#C0_0_ba1fce758f" x="428.273085" y="250.263563" style="fill: #2c737a"/>
    </g>
    <g clip-path="url(#pd6e79ff1dd)">
     <use xlink:href="#C0_0_ba1fce758f" x="430.403797" y="249.295766" style="fill: #2c737a"/>
    </g>
    <g clip-path="url(#pd6e79ff1dd)">
     <use xlink:href="#C0_0_ba1fce758f" x="432.534508" y="252.422959" style="fill: #2c737a"/>
    </g>
    <g clip-path="url(#pd6e79ff1dd)">
     <use xlink:href="#C0_0_ba1fce758f" x="434.66522" y="263.175733" style="fill: #2c737a"/>
    </g>
   </g>
   <g id="axes_4">
    <g id="patch_34">
     <path d="M 30.895322 184.88493 
L 33.026034 184.88493 
L 33.026034 178.423398 
L 30.895322 178.423398 
z
" clip-path="url(#p47f7d7ec14)" style="fill: #e9ebec"/>
    </g>
    <g id="patch_35">
     <path d="M 33.026034 184.88493 
L 35.156746 184.88493 
L 35.156746 178.423398 
L 33.026034 178.423398 
z
" clip-path="url(#p47f7d7ec14)" style="fill: #e9ebec"/>
    </g>
    <g id="patch_36">
     <path d="M 35.156746 184.88493 
L 37.287458 184.88493 
L 37.287458 178.423398 
L 35.156746 178.423398 
z
" clip-path="url(#p47f7d7ec14)" style="fill: #e9ebec"/>
    </g>
    <g id="patch_37">
     <path d="M 37.287458 184.88493 
L 39.418169 184.88493 
L 39.418169 178.423398 
L 37.287458 178.423398 
z
" clip-path="url(#p47f7d7ec14)" style="fill: #e9ebec"/>
    </g>
    <g id="patch_38">
     <path d="M 39.418169 184.88493 
L 41.548881 184.88493 
L 41.548881 178.423398 
L 39.418169 178.423398 
z
" clip-path="url(#p47f7d7ec14)" style="fill: #e9ebec"/>
    </g>
    <g id="patch_39">
     <path d="M 41.548881 184.88493 
L 43.679593 184.88493 
L 43.679593 178.423398 
L 41.548881 178.423398 
z
" clip-path="url(#p47f7d7ec14)" style="fill: #e9ebec"/>
    </g>
    <g id="patch_40">
     <path d="M 43.679593 184.88493 
L 45.810305 184.88493 
L 45.810305 178.423398 
L 43.679593 178.423398 
z
" clip-path="url(#p47f7d7ec14)" style="fill: #e9ebec"/>
    </g>
    <g id="patch_41">
     <path d="M 45.810305 184.88493 
L 47.941017 184.88493 
L 47.941017 178.423398 
L 45.810305 178.423398 
z
" clip-path="url(#p47f7d7ec14)" style="fill: #e9ebec"/>
    </g>
    <g id="patch_42">
     <path d="M 47.941017 184.88493 
L 50.071729 184.88493 
L 50.071729 178.423398 
L 47.941017 178.423398 
z
" clip-path="url(#p47f7d7ec14)" style="fill: #e9ebec"/>
    </g>
    <g id="patch_43">
     <path d="M 50.071729 184.88493 
L 52.202441 184.88493 
L 52.202441 178.423398 
L 50.071729 178.423398 
z
" clip-path="url(#p47f7d7ec14)" style="fill: #e9ebec"/>
    </g>
    <g id="patch_44">
     <path d="M 52.202441 184.88493 
L 54.333153 184.88493 
L 54.333153 178.423398 
L 52.202441 178.423398 
z
" clip-path="url(#p47f7d7ec14)" style="fill: #e9ebec"/>
    </g>
    <g id="patch_45">
     <path d="M 54.333153 184.88493 
L 56.463864 184.88493 
L 56.463864 178.423398 
L 54.333153 178.423398 
z
" clip-path="url(#p47f7d7ec14)" style="fill: #e9ebec"/>
    </g>
    <g id="patch_46">
     <path d="M 56.463864 184.88493 
L 58.594576 184.88493 
L 58.594576 178.423398 
L 56.463864 178.423398 
z
" clip-path="url(#p47f7d7ec14)" style="fill: #e9ebec"/>
    </g>
    <g id="patch_47">
     <path d="M 58.594576 184.88493 
L 60.725288 184.88493 
L 60.725288 178.423398 
L 58.594576 178.423398 
z
" clip-path="url(#p47f7d7ec14)" style="fill: #e9ebec"/>
    </g>
    <g id="patch_48">
     <path d="M 60.725288 184.88493 
L 62.856 184.88493 
L 62.856 178.423398 
L 60.725288 178.423398 
z
" clip-path="url(#p47f7d7ec14)" style="fill: #e9ebec"/>
    </g>
    <g id="patch_49">
     <path d="M 62.856 184.88493 
L 64.986712 184.88493 
L 64.986712 178.423398 
L 62.856 178.423398 
z
" clip-path="url(#p47f7d7ec14)" style="fill: #e9ebec"/>
    </g>
    <g id="patch_50">
     <path d="M 64.986712 184.88493 
L 67.117424 184.88493 
L 67.117424 178.423398 
L 64.986712 178.423398 
z
" clip-path="url(#p47f7d7ec14)" style="fill: #e9ebec"/>
    </g>
    <g id="patch_51">
     <path d="M 67.117424 184.88493 
L 69.248136 184.88493 
L 69.248136 178.423398 
L 67.117424 178.423398 
z
" clip-path="url(#p47f7d7ec14)" style="fill: #e9ebec"/>
    </g>
    <g id="patch_52">
     <path d="M 69.248136 184.88493 
L 71.378847 184.88493 
L 71.378847 178.423398 
L 69.248136 178.423398 
z
" clip-path="url(#p47f7d7ec14)" style="fill: #e9ebec"/>
    </g>
    <g id="patch_53">
     <path d="M 71.378847 184.88493 
L 73.509559 184.88493 
L 73.509559 178.423398 
L 71.378847 178.423398 
z
" clip-path="url(#p47f7d7ec14)" style="fill: #e9ebec"/>
    </g>
    <g id="patch_54">
     <path d="M 73.509559 184.88493 
L 75.640271 184.88493 
L 75.640271 178.423398 
L 73.509559 178.423398 
z
" clip-path="url(#p47f7d7ec14)" style="fill: #e9ebec"/>
    </g>
    <g id="patch_55">
     <path d="M 75.640271 184.88493 
L 77.770983 184.88493 
L 77.770983 178.423398 
L 75.640271 178.423398 
z
" clip-path="url(#p47f7d7ec14)" style="fill: #e9ebec"/>
    </g>
    <g id="patch_56">
     <path d="M 77.770983 184.88493 
L 79.901695 184.88493 
L 79.901695 178.423398 
L 77.770983 178.423398 
z
" clip-path="url(#p47f7d7ec14)" style="fill: #e9ebec"/>
    </g>
    <g id="patch_57">
     <path d="M 79.901695 184.88493 
L 82.032407 184.88493 
L 82.032407 178.423398 
L 79.901695 178.423398 
z
" clip-path="url(#p47f7d7ec14)" style="fill: #e9ebec"/>
    </g>
    <g id="patch_58">
     <path d="M 82.032407 184.88493 
L 84.163119 184.88493 
L 84.163119 178.423398 
L 82.032407 178.423398 
z
" clip-path="url(#p47f7d7ec14)" style="fill: #e9ebec"/>
    </g>
    <g id="patch_59">
     <path d="M 84.163119 184.88493 
L 86.293831 184.88493 
L 86.293831 178.423398 
L 84.163119 178.423398 
z
" clip-path="url(#p47f7d7ec14)" style="fill: #e9ebec"/>
    </g>
    <g id="patch_60">
     <path d="M 86.293831 184.88493 
L 88.424542 184.88493 
L 88.424542 178.423398 
L 86.293831 178.423398 
z
" clip-path="url(#p47f7d7ec14)" style="fill: #e9ebec"/>
    </g>
    <g id="patch_61">
     <path d="M 88.424542 184.88493 
L 90.555254 184.88493 
L 90.555254 178.423398 
L 88.424542 178.423398 
z
" clip-path="url(#p47f7d7ec14)" style="fill: #e9ebec"/>
    </g>
    <g id="patch_62">
     <path d="M 90.555254 184.88493 
L 92.685966 184.88493 
L 92.685966 178.423398 
L 90.555254 178.423398 
z
" clip-path="url(#p47f7d7ec14)" style="fill: #e9ebec"/>
    </g>
    <g id="patch_63">
     <path d="M 92.685966 184.88493 
L 94.816678 184.88493 
L 94.816678 178.423398 
L 92.685966 178.423398 
z
" clip-path="url(#p47f7d7ec14)" style="fill: #e9ebec"/>
    </g>
    <g id="patch_64">
     <path d="M 94.816678 184.88493 
L 96.94739 184.88493 
L 96.94739 178.423398 
L 94.816678 178.423398 
z
" clip-path="url(#p47f7d7ec14)" style="fill: #e9ebec"/>
    </g>
    <g id="patch_65">
     <path d="M 96.94739 184.88493 
L 99.078102 184.88493 
L 99.078102 178.423398 
L 96.94739 178.423398 
z
" clip-path="url(#p47f7d7ec14)" style="fill: #e9ebec"/>
    </g>
    <g id="patch_66">
     <path d="M 99.078102 184.88493 
L 101.208814 184.88493 
L 101.208814 178.423398 
L 99.078102 178.423398 
z
" clip-path="url(#p47f7d7ec14)" style="fill: #e9ebec"/>
    </g>
    <g id="patch_67">
     <path d="M 101.208814 184.88493 
L 103.339525 184.88493 
L 103.339525 178.423398 
L 101.208814 178.423398 
z
" clip-path="url(#p47f7d7ec14)" style="fill: #e9ebec"/>
    </g>
    <g id="patch_68">
     <path d="M 103.339525 184.88493 
L 105.470237 184.88493 
L 105.470237 178.423398 
L 103.339525 178.423398 
z
" clip-path="url(#p47f7d7ec14)" style="fill: #e9ebec"/>
    </g>
    <g id="patch_69">
     <path d="M 105.470237 184.88493 
L 107.600949 184.88493 
L 107.600949 178.423398 
L 105.470237 178.423398 
z
" clip-path="url(#p47f7d7ec14)" style="fill: #e9ebec"/>
    </g>
    <g id="patch_70">
     <path d="M 107.600949 184.88493 
L 109.731661 184.88493 
L 109.731661 178.423398 
L 107.600949 178.423398 
z
" clip-path="url(#p47f7d7ec14)" style="fill: #e9ebec"/>
    </g>
    <g id="patch_71">
     <path d="M 109.731661 184.88493 
L 111.862373 184.88493 
L 111.862373 178.423398 
L 109.731661 178.423398 
z
" clip-path="url(#p47f7d7ec14)" style="fill: #e9ebec"/>
    </g>
    <g id="patch_72">
     <path d="M 111.862373 184.88493 
L 113.993085 184.88493 
L 113.993085 178.423398 
L 111.862373 178.423398 
z
" clip-path="url(#p47f7d7ec14)" style="fill: #e9ebec"/>
    </g>
    <g id="patch_73">
     <path d="M 113.993085 184.88493 
L 116.123797 184.88493 
L 116.123797 178.423398 
L 113.993085 178.423398 
z
" clip-path="url(#p47f7d7ec14)" style="fill: #e9ebec"/>
    </g>
    <g id="patch_74">
     <path d="M 116.123797 184.88493 
L 118.254508 184.88493 
L 118.254508 178.423398 
L 116.123797 178.423398 
z
" clip-path="url(#p47f7d7ec14)" style="fill: #e9ebec"/>
    </g>
    <g id="patch_75">
     <path d="M 118.254508 184.88493 
L 120.38522 184.88493 
L 120.38522 178.423398 
L 118.254508 178.423398 
z
" clip-path="url(#p47f7d7ec14)" style="fill: #e9ebec"/>
    </g>
    <g id="patch_76">
     <path d="M 120.38522 184.88493 
L 122.515932 184.88493 
L 122.515932 178.423398 
L 120.38522 178.423398 
z
" clip-path="url(#p47f7d7ec14)" style="fill: #e9ebec"/>
    </g>
    <g id="patch_77">
     <path d="M 122.515932 184.88493 
L 124.646644 184.88493 
L 124.646644 178.423398 
L 122.515932 178.423398 
z
" clip-path="url(#p47f7d7ec14)" style="fill: #e9ebec"/>
    </g>
    <g id="patch_78">
     <path d="M 124.646644 184.88493 
L 126.777356 184.88493 
L 126.777356 178.423398 
L 124.646644 178.423398 
z
" clip-path="url(#p47f7d7ec14)" style="fill: #e9ebec"/>
    </g>
    <g id="patch_79">
     <path d="M 126.777356 184.88493 
L 128.908068 184.88493 
L 128.908068 178.423398 
L 126.777356 178.423398 
z
" clip-path="url(#p47f7d7ec14)" style="fill: #e9ebec"/>
    </g>
    <g id="patch_80">
     <path d="M 128.908068 184.88493 
L 131.03878 184.88493 
L 131.03878 178.423398 
L 128.908068 178.423398 
z
" clip-path="url(#p47f7d7ec14)" style="fill: #e9ebec"/>
    </g>
    <g id="patch_81">
     <path d="M 131.03878 184.88493 
L 133.169492 184.88493 
L 133.169492 178.423398 
L 131.03878 178.423398 
z
" clip-path="url(#p47f7d7ec14)" style="fill: #e9ebec"/>
    </g>
    <g id="patch_82">
     <path d="M 133.169492 184.88493 
L 135.300203 184.88493 
L 135.300203 178.423398 
L 133.169492 178.423398 
z
" clip-path="url(#p47f7d7ec14)" style="fill: #e9ebec"/>
    </g>
    <g id="patch_83">
     <path d="M 135.300203 184.88493 
L 137.430915 184.88493 
L 137.430915 178.423398 
L 135.300203 178.423398 
z
" clip-path="url(#p47f7d7ec14)" style="fill: #e9ebec"/>
    </g>
    <g id="patch_84">
     <path d="M 137.430915 184.88493 
L 139.561627 184.88493 
L 139.561627 178.423398 
L 137.430915 178.423398 
z
" clip-path="url(#p47f7d7ec14)" style="fill: #e9ebec"/>
    </g>
    <g id="patch_85">
     <path d="M 139.561627 184.88493 
L 141.692339 184.88493 
L 141.692339 178.423398 
L 139.561627 178.423398 
z
" clip-path="url(#p47f7d7ec14)" style="fill: #e9ebec"/>
    </g>
    <g id="patch_86">
     <path d="M 141.692339 184.88493 
L 143.823051 184.88493 
L 143.823051 178.423398 
L 141.692339 178.423398 
z
" clip-path="url(#p47f7d7ec14)" style="fill: #e9ebec"/>
    </g>
    <g id="patch_87">
     <path d="M 143.823051 184.88493 
L 145.953763 184.88493 
L 145.953763 178.423398 
L 143.823051 178.423398 
z
" clip-path="url(#p47f7d7ec14)" style="fill: #e9ebec"/>
    </g>
    <g id="patch_88">
     <path d="M 145.953763 184.88493 
L 148.084475 184.88493 
L 148.084475 178.423398 
L 145.953763 178.423398 
z
" clip-path="url(#p47f7d7ec14)" style="fill: #e9ebec"/>
    </g>
    <g id="patch_89">
     <path d="M 148.084475 184.88493 
L 150.215186 184.88493 
L 150.215186 178.423398 
L 148.084475 178.423398 
z
" clip-path="url(#p47f7d7ec14)" style="fill: #e9ebec"/>
    </g>
    <g id="patch_90">
     <path d="M 150.215186 184.88493 
L 152.345898 184.88493 
L 152.345898 178.423398 
L 150.215186 178.423398 
z
" clip-path="url(#p47f7d7ec14)" style="fill: #e9ebec"/>
    </g>
    <g id="patch_91">
     <path d="M 152.345898 184.88493 
L 154.47661 184.88493 
L 154.47661 178.423398 
L 152.345898 178.423398 
z
" clip-path="url(#p47f7d7ec14)" style="fill: #e9ebec"/>
    </g>
    <g id="patch_92">
     <path d="M 154.47661 184.88493 
L 156.607322 184.88493 
L 156.607322 178.423398 
L 154.47661 178.423398 
z
" clip-path="url(#p47f7d7ec14)" style="fill: #e9ebec"/>
    </g>
    <g id="patch_93">
     <path d="M 156.607322 184.88493 
L 158.738034 184.88493 
L 158.738034 178.423398 
L 156.607322 178.423398 
z
" clip-path="url(#p47f7d7ec14)" style="fill: #e9ebec"/>
    </g>
    <g id="patch_94">
     <path d="M 158.738034 184.88493 
L 160.868746 184.88493 
L 160.868746 178.423398 
L 158.738034 178.423398 
z
" clip-path="url(#p47f7d7ec14)" style="fill: #e9ebec"/>
    </g>
    <g id="patch_95">
     <path d="M 160.868746 184.88493 
L 162.999458 184.88493 
L 162.999458 178.423398 
L 160.868746 178.423398 
z
" clip-path="url(#p47f7d7ec14)" style="fill: #e9ebec"/>
    </g>
    <g id="patch_96">
     <path d="M 162.999458 184.88493 
L 165.130169 184.88493 
L 165.130169 178.423398 
L 162.999458 178.423398 
z
" clip-path="url(#p47f7d7ec14)" style="fill: #e9ebec"/>
    </g>
    <g id="patch_97">
     <path d="M 165.130169 184.88493 
L 167.260881 184.88493 
L 167.260881 178.423398 
L 165.130169 178.423398 
z
" clip-path="url(#p47f7d7ec14)" style="fill: #e9ebec"/>
    </g>
    <g id="patch_98">
     <path d="M 167.260881 184.88493 
L 169.391593 184.88493 
L 169.391593 178.423398 
L 167.260881 178.423398 
z
" clip-path="url(#p47f7d7ec14)" style="fill: #e9ebec"/>
    </g>
    <g id="patch_99">
     <path d="M 169.391593 184.88493 
L 171.522305 184.88493 
L 171.522305 178.423398 
L 169.391593 178.423398 
z
" clip-path="url(#p47f7d7ec14)" style="fill: #e9ebec"/>
    </g>
    <g id="patch_100">
     <path d="M 171.522305 184.88493 
L 173.653017 184.88493 
L 173.653017 178.423398 
L 171.522305 178.423398 
z
" clip-path="url(#p47f7d7ec14)" style="fill: #e9ebec"/>
    </g>
    <g id="patch_101">
     <path d="M 173.653017 184.88493 
L 175.783729 184.88493 
L 175.783729 178.423398 
L 173.653017 178.423398 
z
" clip-path="url(#p47f7d7ec14)" style="fill: #e9ebec"/>
    </g>
    <g id="patch_102">
     <path d="M 175.783729 184.88493 
L 177.914441 184.88493 
L 177.914441 178.423398 
L 175.783729 178.423398 
z
" clip-path="url(#p47f7d7ec14)" style="fill: #e9ebec"/>
    </g>
    <g id="patch_103">
     <path d="M 177.914441 184.88493 
L 180.045153 184.88493 
L 180.045153 178.423398 
L 177.914441 178.423398 
z
" clip-path="url(#p47f7d7ec14)" style="fill: #e9ebec"/>
    </g>
    <g id="patch_104">
     <path d="M 180.045153 184.88493 
L 182.175864 184.88493 
L 182.175864 178.423398 
L 180.045153 178.423398 
z
" clip-path="url(#p47f7d7ec14)" style="fill: #e9ebec"/>
    </g>
    <g id="patch_105">
     <path d="M 182.175864 184.88493 
L 184.306576 184.88493 
L 184.306576 178.423398 
L 182.175864 178.423398 
z
" clip-path="url(#p47f7d7ec14)" style="fill: #e9ebec"/>
    </g>
    <g id="patch_106">
     <path d="M 184.306576 184.88493 
L 186.437288 184.88493 
L 186.437288 178.423398 
L 184.306576 178.423398 
z
" clip-path="url(#p47f7d7ec14)" style="fill: #e9ebec"/>
    </g>
    <g id="patch_107">
     <path d="M 186.437288 184.88493 
L 188.568 184.88493 
L 188.568 178.423398 
L 186.437288 178.423398 
z
" clip-path="url(#p47f7d7ec14)" style="fill: #e9ebec"/>
    </g>
    <g id="patch_108">
     <path d="M 188.568 184.88493 
L 190.698712 184.88493 
L 190.698712 178.423398 
L 188.568 178.423398 
z
" clip-path="url(#p47f7d7ec14)" style="fill: #e9ebec"/>
    </g>
    <g id="patch_109">
     <path d="M 190.698712 184.88493 
L 192.829424 184.88493 
L 192.829424 178.423398 
L 190.698712 178.423398 
z
" clip-path="url(#p47f7d7ec14)" style="fill: #e9ebec"/>
    </g>
    <g id="patch_110">
     <path d="M 192.829424 184.88493 
L 194.960136 184.88493 
L 194.960136 178.423398 
L 192.829424 178.423398 
z
" clip-path="url(#p47f7d7ec14)" style="fill: #e9ebec"/>
    </g>
    <g id="patch_111">
     <path d="M 194.960136 184.88493 
L 197.090847 184.88493 
L 197.090847 178.423398 
L 194.960136 178.423398 
z
" clip-path="url(#p47f7d7ec14)" style="fill: #e9ebec"/>
    </g>
    <g id="patch_112">
     <path d="M 197.090847 184.88493 
L 199.221559 184.88493 
L 199.221559 178.423398 
L 197.090847 178.423398 
z
" clip-path="url(#p47f7d7ec14)" style="fill: #e9ebec"/>
    </g>
    <g id="patch_113">
     <path d="M 199.221559 184.88493 
L 201.352271 184.88493 
L 201.352271 178.423398 
L 199.221559 178.423398 
z
" clip-path="url(#p47f7d7ec14)" style="fill: #e9ebec"/>
    </g>
    <g id="patch_114">
     <path d="M 201.352271 184.88493 
L 203.482983 184.88493 
L 203.482983 178.423398 
L 201.352271 178.423398 
z
" clip-path="url(#p47f7d7ec14)" style="fill: #e9ebec"/>
    </g>
    <g id="patch_115">
     <path d="M 203.482983 184.88493 
L 205.613695 184.88493 
L 205.613695 178.423398 
L 203.482983 178.423398 
z
" clip-path="url(#p47f7d7ec14)" style="fill: #e9ebec"/>
    </g>
    <g id="patch_116">
     <path d="M 205.613695 184.88493 
L 207.744407 184.88493 
L 207.744407 178.423398 
L 205.613695 178.423398 
z
" clip-path="url(#p47f7d7ec14)" style="fill: #e9ebec"/>
    </g>
    <g id="patch_117">
     <path d="M 207.744407 184.88493 
L 209.875119 184.88493 
L 209.875119 178.423398 
L 207.744407 178.423398 
z
" clip-path="url(#p47f7d7ec14)" style="fill: #e9ebec"/>
    </g>
    <g id="patch_118">
     <path d="M 209.875119 184.88493 
L 212.005831 184.88493 
L 212.005831 178.423398 
L 209.875119 178.423398 
z
" clip-path="url(#p47f7d7ec14)" style="fill: #e9ebec"/>
    </g>
    <g id="patch_119">
     <path d="M 212.005831 184.88493 
L 214.136542 184.88493 
L 214.136542 178.423398 
L 212.005831 178.423398 
z
" clip-path="url(#p47f7d7ec14)" style="fill: #e9ebec"/>
    </g>
    <g id="patch_120">
     <path d="M 214.136542 184.88493 
L 216.267254 184.88493 
L 216.267254 178.423398 
L 214.136542 178.423398 
z
" clip-path="url(#p47f7d7ec14)" style="fill: #e9ebec"/>
    </g>
    <g id="patch_121">
     <path d="M 216.267254 184.88493 
L 218.397966 184.88493 
L 218.397966 178.423398 
L 216.267254 178.423398 
z
" clip-path="url(#p47f7d7ec14)" style="fill: #e9ebec"/>
    </g>
    <g id="patch_122">
     <path d="M 218.397966 184.88493 
L 220.528678 184.88493 
L 220.528678 178.423398 
L 218.397966 178.423398 
z
" clip-path="url(#p47f7d7ec14)" style="fill: #e9ebec"/>
    </g>
    <g id="patch_123">
     <path d="M 220.528678 184.88493 
L 222.65939 184.88493 
L 222.65939 178.423398 
L 220.528678 178.423398 
z
" clip-path="url(#p47f7d7ec14)" style="fill: #e9ebec"/>
    </g>
    <g id="patch_124">
     <path d="M 222.65939 184.88493 
L 224.790102 184.88493 
L 224.790102 178.423398 
L 222.65939 178.423398 
z
" clip-path="url(#p47f7d7ec14)" style="fill: #e9ebec"/>
    </g>
    <g id="patch_125">
     <path d="M 224.790102 184.88493 
L 226.920814 184.88493 
L 226.920814 178.423398 
L 224.790102 178.423398 
z
" clip-path="url(#p47f7d7ec14)" style="fill: #e9ebec"/>
    </g>
    <g id="patch_126">
     <path d="M 226.920814 184.88493 
L 229.051525 184.88493 
L 229.051525 178.423398 
L 226.920814 178.423398 
z
" clip-path="url(#p47f7d7ec14)" style="fill: #e9ebec"/>
    </g>
    <g id="patch_127">
     <path d="M 229.051525 184.88493 
L 231.182237 184.88493 
L 231.182237 178.423398 
L 229.051525 178.423398 
z
" clip-path="url(#p47f7d7ec14)" style="fill: #e9ebec"/>
    </g>
    <g id="patch_128">
     <path d="M 231.182237 184.88493 
L 233.312949 184.88493 
L 233.312949 178.423398 
L 231.182237 178.423398 
z
" clip-path="url(#p47f7d7ec14)" style="fill: #e9ebec"/>
    </g>
    <g id="patch_129">
     <path d="M 233.312949 184.88493 
L 235.443661 184.88493 
L 235.443661 178.423398 
L 233.312949 178.423398 
z
" clip-path="url(#p47f7d7ec14)" style="fill: #e9ebec"/>
    </g>
    <g id="patch_130">
     <path d="M 235.443661 184.88493 
L 237.574373 184.88493 
L 237.574373 178.423398 
L 235.443661 178.423398 
z
" clip-path="url(#p47f7d7ec14)" style="fill: #e9ebec"/>
    </g>
    <g id="patch_131">
     <path d="M 237.574373 184.88493 
L 239.705085 184.88493 
L 239.705085 178.423398 
L 237.574373 178.423398 
z
" clip-path="url(#p47f7d7ec14)" style="fill: #e9ebec"/>
    </g>
    <g id="patch_132">
     <path d="M 239.705085 184.88493 
L 241.835797 184.88493 
L 241.835797 178.423398 
L 239.705085 178.423398 
z
" clip-path="url(#p47f7d7ec14)" style="fill: #e9ebec"/>
    </g>
    <g id="patch_133">
     <path d="M 241.835797 184.88493 
L 243.966508 184.88493 
L 243.966508 178.423398 
L 241.835797 178.423398 
z
" clip-path="url(#p47f7d7ec14)" style="fill: #e9ebec"/>
    </g>
    <g id="patch_134">
     <path d="M 243.966508 184.88493 
L 246.09722 184.88493 
L 246.09722 178.423398 
L 243.966508 178.423398 
z
" clip-path="url(#p47f7d7ec14)" style="fill: #e9ebec"/>
    </g>
    <g id="patch_135">
     <path d="M 246.09722 184.88493 
L 248.227932 184.88493 
L 248.227932 178.423398 
L 246.09722 178.423398 
z
" clip-path="url(#p47f7d7ec14)" style="fill: #e9ebec"/>
    </g>
    <g id="patch_136">
     <path d="M 248.227932 184.88493 
L 250.358644 184.88493 
L 250.358644 178.423398 
L 248.227932 178.423398 
z
" clip-path="url(#p47f7d7ec14)" style="fill: #e9ebec"/>
    </g>
    <g id="patch_137">
     <path d="M 250.358644 184.88493 
L 252.489356 184.88493 
L 252.489356 178.423398 
L 250.358644 178.423398 
z
" clip-path="url(#p47f7d7ec14)" style="fill: #e9ebec"/>
    </g>
    <g id="patch_138">
     <path d="M 252.489356 184.88493 
L 254.620068 184.88493 
L 254.620068 178.423398 
L 252.489356 178.423398 
z
" clip-path="url(#p47f7d7ec14)" style="fill: #e9ebec"/>
    </g>
    <g id="patch_139">
     <path d="M 254.620068 184.88493 
L 256.75078 184.88493 
L 256.75078 178.423398 
L 254.620068 178.423398 
z
" clip-path="url(#p47f7d7ec14)" style="fill: #e9ebec"/>
    </g>
    <g id="patch_140">
     <path d="M 256.75078 184.88493 
L 258.881492 184.88493 
L 258.881492 178.423398 
L 256.75078 178.423398 
z
" clip-path="url(#p47f7d7ec14)" style="fill: #e9ebec"/>
    </g>
    <g id="patch_141">
     <path d="M 258.881492 184.88493 
L 261.012203 184.88493 
L 261.012203 178.423398 
L 258.881492 178.423398 
z
" clip-path="url(#p47f7d7ec14)" style="fill: #e9ebec"/>
    </g>
    <g id="patch_142">
     <path d="M 261.012203 184.88493 
L 263.142915 184.88493 
L 263.142915 178.423398 
L 261.012203 178.423398 
z
" clip-path="url(#p47f7d7ec14)" style="fill: #e9ebec"/>
    </g>
    <g id="patch_143">
     <path d="M 263.142915 184.88493 
L 265.273627 184.88493 
L 265.273627 178.423398 
L 263.142915 178.423398 
z
" clip-path="url(#p47f7d7ec14)" style="fill: #e9ebec"/>
    </g>
    <g id="patch_144">
     <path d="M 265.273627 184.88493 
L 267.404339 184.88493 
L 267.404339 178.423398 
L 265.273627 178.423398 
z
" clip-path="url(#p47f7d7ec14)" style="fill: #e9ebec"/>
    </g>
    <g id="patch_145">
     <path d="M 267.404339 184.88493 
L 269.535051 184.88493 
L 269.535051 178.423398 
L 267.404339 178.423398 
z
" clip-path="url(#p47f7d7ec14)" style="fill: #e9ebec"/>
    </g>
    <g id="patch_146">
     <path d="M 269.535051 184.88493 
L 271.665763 184.88493 
L 271.665763 178.423398 
L 269.535051 178.423398 
z
" clip-path="url(#p47f7d7ec14)" style="fill: #e9ebec"/>
    </g>
    <g id="patch_147">
     <path d="M 271.665763 184.88493 
L 273.796475 184.88493 
L 273.796475 178.423398 
L 271.665763 178.423398 
z
" clip-path="url(#p47f7d7ec14)" style="fill: #e9ebec"/>
    </g>
    <g id="patch_148">
     <path d="M 273.796475 184.88493 
L 275.927186 184.88493 
L 275.927186 178.423398 
L 273.796475 178.423398 
z
" clip-path="url(#p47f7d7ec14)" style="fill: #e9ebec"/>
    </g>
    <g id="patch_149">
     <path d="M 275.927186 184.88493 
L 278.057898 184.88493 
L 278.057898 178.423398 
L 275.927186 178.423398 
z
" clip-path="url(#p47f7d7ec14)" style="fill: #e9ebec"/>
    </g>
    <g id="patch_150">
     <path d="M 278.057898 184.88493 
L 280.18861 184.88493 
L 280.18861 178.423398 
L 278.057898 178.423398 
z
" clip-path="url(#p47f7d7ec14)" style="fill: #e9ebec"/>
    </g>
    <g id="patch_151">
     <path d="M 280.18861 184.88493 
L 282.319322 184.88493 
L 282.319322 178.423398 
L 280.18861 178.423398 
z
" clip-path="url(#p47f7d7ec14)" style="fill: #e9ebec"/>
    </g>
    <g id="patch_152">
     <path d="M 282.319322 184.88493 
L 284.450034 184.88493 
L 284.450034 178.423398 
L 282.319322 178.423398 
z
" clip-path="url(#p47f7d7ec14)" style="fill: #e9ebec"/>
    </g>
    <g id="patch_153">
     <path d="M 284.450034 184.88493 
L 286.580746 184.88493 
L 286.580746 178.423398 
L 284.450034 178.423398 
z
" clip-path="url(#p47f7d7ec14)" style="fill: #e9ebec"/>
    </g>
    <g id="patch_154">
     <path d="M 286.580746 184.88493 
L 288.711458 184.88493 
L 288.711458 178.423398 
L 286.580746 178.423398 
z
" clip-path="url(#p47f7d7ec14)" style="fill: #e9ebec"/>
    </g>
    <g id="patch_155">
     <path d="M 288.711458 184.88493 
L 290.842169 184.88493 
L 290.842169 178.423398 
L 288.711458 178.423398 
z
" clip-path="url(#p47f7d7ec14)" style="fill: #e9ebec"/>
    </g>
    <g id="patch_156">
     <path d="M 290.842169 184.88493 
L 292.972881 184.88493 
L 292.972881 178.423398 
L 290.842169 178.423398 
z
" clip-path="url(#p47f7d7ec14)" style="fill: #e9ebec"/>
    </g>
    <g id="patch_157">
     <path d="M 292.972881 184.88493 
L 295.103593 184.88493 
L 295.103593 178.423398 
L 292.972881 178.423398 
z
" clip-path="url(#p47f7d7ec14)" style="fill: #e9ebec"/>
    </g>
    <g id="patch_158">
     <path d="M 295.103593 184.88493 
L 297.234305 184.88493 
L 297.234305 178.423398 
L 295.103593 178.423398 
z
" clip-path="url(#p47f7d7ec14)" style="fill: #e9ebec"/>
    </g>
    <g id="patch_159">
     <path d="M 297.234305 184.88493 
L 299.365017 184.88493 
L 299.365017 178.423398 
L 297.234305 178.423398 
z
" clip-path="url(#p47f7d7ec14)" style="fill: #2c737a"/>
    </g>
    <g id="patch_160">
     <path d="M 299.365017 184.88493 
L 301.495729 184.88493 
L 301.495729 178.423398 
L 299.365017 178.423398 
z
" clip-path="url(#p47f7d7ec14)" style="fill: #2c737a"/>
    </g>
    <g id="patch_161">
     <path d="M 301.495729 184.88493 
L 303.626441 184.88493 
L 303.626441 178.423398 
L 301.495729 178.423398 
z
" clip-path="url(#p47f7d7ec14)" style="fill: #2c737a"/>
    </g>
    <g id="patch_162">
     <path d="M 303.626441 184.88493 
L 305.757153 184.88493 
L 305.757153 178.423398 
L 303.626441 178.423398 
z
" clip-path="url(#p47f7d7ec14)" style="fill: #2c737a"/>
    </g>
    <g id="patch_163">
     <path d="M 305.757153 184.88493 
L 307.887864 184.88493 
L 307.887864 178.423398 
L 305.757153 178.423398 
z
" clip-path="url(#p47f7d7ec14)" style="fill: #2c737a"/>
    </g>
    <g id="patch_164">
     <path d="M 307.887864 184.88493 
L 310.018576 184.88493 
L 310.018576 178.423398 
L 307.887864 178.423398 
z
" clip-path="url(#p47f7d7ec14)" style="fill: #2c737a"/>
    </g>
    <g id="patch_165">
     <path d="M 310.018576 184.88493 
L 312.149288 184.88493 
L 312.149288 178.423398 
L 310.018576 178.423398 
z
" clip-path="url(#p47f7d7ec14)" style="fill: #2c737a"/>
    </g>
    <g id="patch_166">
     <path d="M 312.149288 184.88493 
L 314.28 184.88493 
L 314.28 178.423398 
L 312.149288 178.423398 
z
" clip-path="url(#p47f7d7ec14)" style="fill: #2c737a"/>
    </g>
    <g id="patch_167">
     <path d="M 314.28 184.88493 
L 316.410712 184.88493 
L 316.410712 178.423398 
L 314.28 178.423398 
z
" clip-path="url(#p47f7d7ec14)" style="fill: #2c737a"/>
    </g>
    <g id="patch_168">
     <path d="M 316.410712 184.88493 
L 318.541424 184.88493 
L 318.541424 178.423398 
L 316.410712 178.423398 
z
" clip-path="url(#p47f7d7ec14)" style="fill: #2c737a"/>
    </g>
    <g id="patch_169">
     <path d="M 318.541424 184.88493 
L 320.672136 184.88493 
L 320.672136 178.423398 
L 318.541424 178.423398 
z
" clip-path="url(#p47f7d7ec14)" style="fill: #2c737a"/>
    </g>
    <g id="patch_170">
     <path d="M 320.672136 184.88493 
L 322.802847 184.88493 
L 322.802847 178.423398 
L 320.672136 178.423398 
z
" clip-path="url(#p47f7d7ec14)" style="fill: #2c737a"/>
    </g>
    <g id="patch_171">
     <path d="M 322.802847 184.88493 
L 324.933559 184.88493 
L 324.933559 178.423398 
L 322.802847 178.423398 
z
" clip-path="url(#p47f7d7ec14)" style="fill: #2c737a"/>
    </g>
    <g id="patch_172">
     <path d="M 324.933559 184.88493 
L 327.064271 184.88493 
L 327.064271 178.423398 
L 324.933559 178.423398 
z
" clip-path="url(#p47f7d7ec14)" style="fill: #2c737a"/>
    </g>
    <g id="patch_173">
     <path d="M 327.064271 184.88493 
L 329.194983 184.88493 
L 329.194983 178.423398 
L 327.064271 178.423398 
z
" clip-path="url(#p47f7d7ec14)" style="fill: #2c737a"/>
    </g>
    <g id="patch_174">
     <path d="M 329.194983 184.88493 
L 331.325695 184.88493 
L 331.325695 178.423398 
L 329.194983 178.423398 
z
" clip-path="url(#p47f7d7ec14)" style="fill: #2c737a"/>
    </g>
    <g id="patch_175">
     <path d="M 331.325695 184.88493 
L 333.456407 184.88493 
L 333.456407 178.423398 
L 331.325695 178.423398 
z
" clip-path="url(#p47f7d7ec14)" style="fill: #2c737a"/>
    </g>
    <g id="patch_176">
     <path d="M 333.456407 184.88493 
L 335.587119 184.88493 
L 335.587119 178.423398 
L 333.456407 178.423398 
z
" clip-path="url(#p47f7d7ec14)" style="fill: #2c737a"/>
    </g>
    <g id="patch_177">
     <path d="M 335.587119 184.88493 
L 337.717831 184.88493 
L 337.717831 178.423398 
L 335.587119 178.423398 
z
" clip-path="url(#p47f7d7ec14)" style="fill: #2c737a"/>
    </g>
    <g id="patch_178">
     <path d="M 337.717831 184.88493 
L 339.848542 184.88493 
L 339.848542 178.423398 
L 337.717831 178.423398 
z
" clip-path="url(#p47f7d7ec14)" style="fill: #2c737a"/>
    </g>
    <g id="patch_179">
     <path d="M 339.848542 184.88493 
L 341.979254 184.88493 
L 341.979254 178.423398 
L 339.848542 178.423398 
z
" clip-path="url(#p47f7d7ec14)" style="fill: #2c737a"/>
    </g>
    <g id="patch_180">
     <path d="M 341.979254 184.88493 
L 344.109966 184.88493 
L 344.109966 178.423398 
L 341.979254 178.423398 
z
" clip-path="url(#p47f7d7ec14)" style="fill: #2c737a"/>
    </g>
    <g id="patch_181">
     <path d="M 344.109966 184.88493 
L 346.240678 184.88493 
L 346.240678 178.423398 
L 344.109966 178.423398 
z
" clip-path="url(#p47f7d7ec14)" style="fill: #2c737a"/>
    </g>
    <g id="patch_182">
     <path d="M 346.240678 184.88493 
L 348.37139 184.88493 
L 348.37139 178.423398 
L 346.240678 178.423398 
z
" clip-path="url(#p47f7d7ec14)" style="fill: #2c737a"/>
    </g>
    <g id="patch_183">
     <path d="M 348.37139 184.88493 
L 350.502102 184.88493 
L 350.502102 178.423398 
L 348.37139 178.423398 
z
" clip-path="url(#p47f7d7ec14)" style="fill: #2c737a"/>
    </g>
    <g id="patch_184">
     <path d="M 350.502102 184.88493 
L 352.632814 184.88493 
L 352.632814 178.423398 
L 350.502102 178.423398 
z
" clip-path="url(#p47f7d7ec14)" style="fill: #2c737a"/>
    </g>
    <g id="patch_185">
     <path d="M 352.632814 184.88493 
L 354.763525 184.88493 
L 354.763525 178.423398 
L 352.632814 178.423398 
z
" clip-path="url(#p47f7d7ec14)" style="fill: #2c737a"/>
    </g>
    <g id="patch_186">
     <path d="M 354.763525 184.88493 
L 356.894237 184.88493 
L 356.894237 178.423398 
L 354.763525 178.423398 
z
" clip-path="url(#p47f7d7ec14)" style="fill: #2c737a"/>
    </g>
    <g id="patch_187">
     <path d="M 356.894237 184.88493 
L 359.024949 184.88493 
L 359.024949 178.423398 
L 356.894237 178.423398 
z
" clip-path="url(#p47f7d7ec14)" style="fill: #2c737a"/>
    </g>
    <g id="patch_188">
     <path d="M 359.024949 184.88493 
L 361.155661 184.88493 
L 361.155661 178.423398 
L 359.024949 178.423398 
z
" clip-path="url(#p47f7d7ec14)" style="fill: #2c737a"/>
    </g>
    <g id="patch_189">
     <path d="M 361.155661 184.88493 
L 363.286373 184.88493 
L 363.286373 178.423398 
L 361.155661 178.423398 
z
" clip-path="url(#p47f7d7ec14)" style="fill: #2c737a"/>
    </g>
    <g id="patch_190">
     <path d="M 363.286373 184.88493 
L 365.417085 184.88493 
L 365.417085 178.423398 
L 363.286373 178.423398 
z
" clip-path="url(#p47f7d7ec14)" style="fill: #2c737a"/>
    </g>
    <g id="patch_191">
     <path d="M 365.417085 184.88493 
L 367.547797 184.88493 
L 367.547797 178.423398 
L 365.417085 178.423398 
z
" clip-path="url(#p47f7d7ec14)" style="fill: #2c737a"/>
    </g>
    <g id="patch_192">
     <path d="M 367.547797 184.88493 
L 369.678508 184.88493 
L 369.678508 178.423398 
L 367.547797 178.423398 
z
" clip-path="url(#p47f7d7ec14)" style="fill: #2c737a"/>
    </g>
    <g id="patch_193">
     <path d="M 369.678508 184.88493 
L 371.80922 184.88493 
L 371.80922 178.423398 
L 369.678508 178.423398 
z
" clip-path="url(#p47f7d7ec14)" style="fill: #2c737a"/>
    </g>
    <g id="patch_194">
     <path d="M 371.80922 184.88493 
L 373.939932 184.88493 
L 373.939932 178.423398 
L 371.80922 178.423398 
z
" clip-path="url(#p47f7d7ec14)" style="fill: #2c737a"/>
    </g>
    <g id="patch_195">
     <path d="M 373.939932 184.88493 
L 376.070644 184.88493 
L 376.070644 178.423398 
L 373.939932 178.423398 
z
" clip-path="url(#p47f7d7ec14)" style="fill: #2c737a"/>
    </g>
    <g id="patch_196">
     <path d="M 376.070644 184.88493 
L 378.201356 184.88493 
L 378.201356 178.423398 
L 376.070644 178.423398 
z
" clip-path="url(#p47f7d7ec14)" style="fill: #2c737a"/>
    </g>
    <g id="patch_197">
     <path d="M 378.201356 184.88493 
L 380.332068 184.88493 
L 380.332068 178.423398 
L 378.201356 178.423398 
z
" clip-path="url(#p47f7d7ec14)" style="fill: #2c737a"/>
    </g>
    <g id="patch_198">
     <path d="M 380.332068 184.88493 
L 382.46278 184.88493 
L 382.46278 178.423398 
L 380.332068 178.423398 
z
" clip-path="url(#p47f7d7ec14)" style="fill: #e9ebec"/>
    </g>
    <g id="patch_199">
     <path d="M 382.46278 184.88493 
L 384.593492 184.88493 
L 384.593492 178.423398 
L 382.46278 178.423398 
z
" clip-path="url(#p47f7d7ec14)" style="fill: #e9ebec"/>
    </g>
    <g id="patch_200">
     <path d="M 384.593492 184.88493 
L 386.724203 184.88493 
L 386.724203 178.423398 
L 384.593492 178.423398 
z
" clip-path="url(#p47f7d7ec14)" style="fill: #2c737a"/>
    </g>
    <g id="patch_201">
     <path d="M 386.724203 184.88493 
L 388.854915 184.88493 
L 388.854915 178.423398 
L 386.724203 178.423398 
z
" clip-path="url(#p47f7d7ec14)" style="fill: #2c737a"/>
    </g>
    <g id="patch_202">
     <path d="M 388.854915 184.88493 
L 390.985627 184.88493 
L 390.985627 178.423398 
L 388.854915 178.423398 
z
" clip-path="url(#p47f7d7ec14)" style="fill: #2c737a"/>
    </g>
    <g id="patch_203">
     <path d="M 390.985627 184.88493 
L 393.116339 184.88493 
L 393.116339 178.423398 
L 390.985627 178.423398 
z
" clip-path="url(#p47f7d7ec14)" style="fill: #2c737a"/>
    </g>
    <g id="patch_204">
     <path d="M 393.116339 184.88493 
L 395.247051 184.88493 
L 395.247051 178.423398 
L 393.116339 178.423398 
z
" clip-path="url(#p47f7d7ec14)" style="fill: #2c737a"/>
    </g>
    <g id="patch_205">
     <path d="M 395.247051 184.88493 
L 397.377763 184.88493 
L 397.377763 178.423398 
L 395.247051 178.423398 
z
" clip-path="url(#p47f7d7ec14)" style="fill: #2c737a"/>
    </g>
    <g id="patch_206">
     <path d="M 397.377763 184.88493 
L 399.508475 184.88493 
L 399.508475 178.423398 
L 397.377763 178.423398 
z
" clip-path="url(#p47f7d7ec14)" style="fill: #2c737a"/>
    </g>
    <g id="patch_207">
     <path d="M 399.508475 184.88493 
L 401.639186 184.88493 
L 401.639186 178.423398 
L 399.508475 178.423398 
z
" clip-path="url(#p47f7d7ec14)" style="fill: #2c737a"/>
    </g>
    <g id="patch_208">
     <path d="M 401.639186 184.88493 
L 403.769898 184.88493 
L 403.769898 178.423398 
L 401.639186 178.423398 
z
" clip-path="url(#p47f7d7ec14)" style="fill: #e9ebec"/>
    </g>
    <g id="patch_209">
     <path d="M 403.769898 184.88493 
L 405.90061 184.88493 
L 405.90061 178.423398 
L 403.769898 178.423398 
z
" clip-path="url(#p47f7d7ec14)" style="fill: #2c737a"/>
    </g>
    <g id="patch_210">
     <path d="M 405.90061 184.88493 
L 408.031322 184.88493 
L 408.031322 178.423398 
L 405.90061 178.423398 
z
" clip-path="url(#p47f7d7ec14)" style="fill: #2c737a"/>
    </g>
    <g id="patch_211">
     <path d="M 408.031322 184.88493 
L 410.162034 184.88493 
L 410.162034 178.423398 
L 408.031322 178.423398 
z
" clip-path="url(#p47f7d7ec14)" style="fill: #2c737a"/>
    </g>
    <g id="patch_212">
     <path d="M 410.162034 184.88493 
L 412.292746 184.88493 
L 412.292746 178.423398 
L 410.162034 178.423398 
z
" clip-path="url(#p47f7d7ec14)" style="fill: #2c737a"/>
    </g>
    <g id="patch_213">
     <path d="M 412.292746 184.88493 
L 414.423458 184.88493 
L 414.423458 178.423398 
L 412.292746 178.423398 
z
" clip-path="url(#p47f7d7ec14)" style="fill: #2c737a"/>
    </g>
    <g id="patch_214">
     <path d="M 414.423458 184.88493 
L 416.554169 184.88493 
L 416.554169 178.423398 
L 414.423458 178.423398 
z
" clip-path="url(#p47f7d7ec14)" style="fill: #e9ebec"/>
    </g>
    <g id="patch_215">
     <path d="M 416.554169 184.88493 
L 418.684881 184.88493 
L 418.684881 178.423398 
L 416.554169 178.423398 
z
" clip-path="url(#p47f7d7ec14)" style="fill: #2c737a"/>
    </g>
    <g id="patch_216">
     <path d="M 418.684881 184.88493 
L 420.815593 184.88493 
L 420.815593 178.423398 
L 418.684881 178.423398 
z
" clip-path="url(#p47f7d7ec14)" style="fill: #d98884"/>
    </g>
    <g id="patch_217">
     <path d="M 420.815593 184.88493 
L 422.946305 184.88493 
L 422.946305 178.423398 
L 420.815593 178.423398 
z
" clip-path="url(#p47f7d7ec14)" style="fill: #d98884"/>
    </g>
    <g id="patch_218">
     <path d="M 422.946305 184.88493 
L 425.077017 184.88493 
L 425.077017 178.423398 
L 422.946305 178.423398 
z
" clip-path="url(#p47f7d7ec14)" style="fill: #2c737a"/>
    </g>
    <g id="patch_219">
     <path d="M 425.077017 184.88493 
L 427.207729 184.88493 
L 427.207729 178.423398 
L 425.077017 178.423398 
z
" clip-path="url(#p47f7d7ec14)" style="fill: #2c737a"/>
    </g>
    <g id="patch_220">
     <path d="M 427.207729 184.88493 
L 429.338441 184.88493 
L 429.338441 178.423398 
L 427.207729 178.423398 
z
" clip-path="url(#p47f7d7ec14)" style="fill: #2c737a"/>
    </g>
    <g id="patch_221">
     <path d="M 429.338441 184.88493 
L 431.469153 184.88493 
L 431.469153 178.423398 
L 429.338441 178.423398 
z
" clip-path="url(#p47f7d7ec14)" style="fill: #2c737a"/>
    </g>
    <g id="patch_222">
     <path d="M 431.469153 184.88493 
L 433.599864 184.88493 
L 433.599864 178.423398 
L 431.469153 178.423398 
z
" clip-path="url(#p47f7d7ec14)" style="fill: #2c737a"/>
    </g>
    <g id="patch_223">
     <path d="M 433.599864 184.88493 
L 435.730576 184.88493 
L 435.730576 178.423398 
L 433.599864 178.423398 
z
" clip-path="url(#p47f7d7ec14)" style="fill: #2c737a"/>
    </g>
    <g id="patch_224">
     <path d="M 435.730576 184.88493 
L 437.861288 184.88493 
L 437.861288 178.423398 
L 435.730576 178.423398 
z
" clip-path="url(#p47f7d7ec14)" style="fill: #e9ebec"/>
    </g>
    <g id="patch_225">
     <path d="M 437.861288 184.88493 
L 439.992 184.88493 
L 439.992 178.423398 
L 437.861288 178.423398 
z
" clip-path="url(#p47f7d7ec14)" style="fill: #e9ebec"/>
    </g>
    <g id="patch_226">
     <path d="M 439.992 184.88493 
L 442.122712 184.88493 
L 442.122712 178.423398 
L 439.992 178.423398 
z
" clip-path="url(#p47f7d7ec14)" style="fill: #e9ebec"/>
    </g>
    <g id="patch_227">
     <path d="M 442.122712 184.88493 
L 444.253424 184.88493 
L 444.253424 178.423398 
L 442.122712 178.423398 
z
" clip-path="url(#p47f7d7ec14)" style="fill: #e9ebec"/>
    </g>
    <g id="patch_228">
     <path d="M 444.253424 184.88493 
L 446.384136 184.88493 
L 446.384136 178.423398 
L 444.253424 178.423398 
z
" clip-path="url(#p47f7d7ec14)" style="fill: #e9ebec"/>
    </g>
    <g id="patch_229">
     <path d="M 446.384136 184.88493 
L 448.514847 184.88493 
L 448.514847 178.423398 
L 446.384136 178.423398 
z
" clip-path="url(#p47f7d7ec14)" style="fill: #e9ebec"/>
    </g>
    <g id="patch_230">
     <path d="M 448.514847 184.88493 
L 450.645559 184.88493 
L 450.645559 178.423398 
L 448.514847 178.423398 
z
" clip-path="url(#p47f7d7ec14)" style="fill: #e9ebec"/>
    </g>
    <g id="patch_231">
     <path d="M 450.645559 184.88493 
L 452.776271 184.88493 
L 452.776271 178.423398 
L 450.645559 178.423398 
z
" clip-path="url(#p47f7d7ec14)" style="fill: #e9ebec"/>
    </g>
    <g id="patch_232">
     <path d="M 452.776271 184.88493 
L 454.906983 184.88493 
L 454.906983 178.423398 
L 452.776271 178.423398 
z
" clip-path="url(#p47f7d7ec14)" style="fill: #e9ebec"/>
    </g>
    <g id="patch_233">
     <path d="M 454.906983 184.88493 
L 457.037695 184.88493 
L 457.037695 178.423398 
L 454.906983 178.423398 
z
" clip-path="url(#p47f7d7ec14)" style="fill: #e9ebec"/>
    </g>
    <g id="patch_234">
     <path d="M 457.037695 184.88493 
L 459.168407 184.88493 
L 459.168407 178.423398 
L 457.037695 178.423398 
z
" clip-path="url(#p47f7d7ec14)" style="fill: #e9ebec"/>
    </g>
    <g id="patch_235">
     <path d="M 459.168407 184.88493 
L 461.299119 184.88493 
L 461.299119 178.423398 
L 459.168407 178.423398 
z
" clip-path="url(#p47f7d7ec14)" style="fill: #e9ebec"/>
    </g>
    <g id="patch_236">
     <path d="M 461.299119 184.88493 
L 463.429831 184.88493 
L 463.429831 178.423398 
L 461.299119 178.423398 
z
" clip-path="url(#p47f7d7ec14)" style="fill: #e9ebec"/>
    </g>
    <g id="patch_237">
     <path d="M 463.429831 184.88493 
L 465.560542 184.88493 
L 465.560542 178.423398 
L 463.429831 178.423398 
z
" clip-path="url(#p47f7d7ec14)" style="fill: #e9ebec"/>
    </g>
    <g id="patch_238">
     <path d="M 465.560542 184.88493 
L 467.691254 184.88493 
L 467.691254 178.423398 
L 465.560542 178.423398 
z
" clip-path="url(#p47f7d7ec14)" style="fill: #e9ebec"/>
    </g>
    <g id="patch_239">
     <path d="M 467.691254 184.88493 
L 469.821966 184.88493 
L 469.821966 178.423398 
L 467.691254 178.423398 
z
" clip-path="url(#p47f7d7ec14)" style="fill: #e9ebec"/>
    </g>
    <g id="patch_240">
     <path d="M 469.821966 184.88493 
L 471.952678 184.88493 
L 471.952678 178.423398 
L 469.821966 178.423398 
z
" clip-path="url(#p47f7d7ec14)" style="fill: #e9ebec"/>
    </g>
    <g id="patch_241">
     <path d="M 471.952678 184.88493 
L 474.08339 184.88493 
L 474.08339 178.423398 
L 471.952678 178.423398 
z
" clip-path="url(#p47f7d7ec14)" style="fill: #e9ebec"/>
    </g>
    <g id="patch_242">
     <path d="M 474.08339 184.88493 
L 476.214102 184.88493 
L 476.214102 178.423398 
L 474.08339 178.423398 
z
" clip-path="url(#p47f7d7ec14)" style="fill: #e9ebec"/>
    </g>
    <g id="patch_243">
     <path d="M 476.214102 184.88493 
L 478.344814 184.88493 
L 478.344814 178.423398 
L 476.214102 178.423398 
z
" clip-path="url(#p47f7d7ec14)" style="fill: #e9ebec"/>
    </g>
    <g id="patch_244">
     <path d="M 478.344814 184.88493 
L 480.475525 184.88493 
L 480.475525 178.423398 
L 478.344814 178.423398 
z
" clip-path="url(#p47f7d7ec14)" style="fill: #e9ebec"/>
    </g>
    <g id="patch_245">
     <path d="M 480.475525 184.88493 
L 482.606237 184.88493 
L 482.606237 178.423398 
L 480.475525 178.423398 
z
" clip-path="url(#p47f7d7ec14)" style="fill: #e9ebec"/>
    </g>
    <g id="patch_246">
     <path d="M 482.606237 184.88493 
L 484.736949 184.88493 
L 484.736949 178.423398 
L 482.606237 178.423398 
z
" clip-path="url(#p47f7d7ec14)" style="fill: #e9ebec"/>
    </g>
    <g id="patch_247">
     <path d="M 484.736949 184.88493 
L 486.867661 184.88493 
L 486.867661 178.423398 
L 484.736949 178.423398 
z
" clip-path="url(#p47f7d7ec14)" style="fill: #e9ebec"/>
    </g>
    <g id="patch_248">
     <path d="M 486.867661 184.88493 
L 488.998373 184.88493 
L 488.998373 178.423398 
L 486.867661 178.423398 
z
" clip-path="url(#p47f7d7ec14)" style="fill: #e9ebec"/>
    </g>
    <g id="patch_249">
     <path d="M 488.998373 184.88493 
L 491.129085 184.88493 
L 491.129085 178.423398 
L 488.998373 178.423398 
z
" clip-path="url(#p47f7d7ec14)" style="fill: #e9ebec"/>
    </g>
    <g id="patch_250">
     <path d="M 491.129085 184.88493 
L 493.259797 184.88493 
L 493.259797 178.423398 
L 491.129085 178.423398 
z
" clip-path="url(#p47f7d7ec14)" style="fill: #e9ebec"/>
    </g>
    <g id="patch_251">
     <path d="M 493.259797 184.88493 
L 495.390508 184.88493 
L 495.390508 178.423398 
L 493.259797 178.423398 
z
" clip-path="url(#p47f7d7ec14)" style="fill: #e9ebec"/>
    </g>
    <g id="patch_252">
     <path d="M 495.390508 184.88493 
L 497.52122 184.88493 
L 497.52122 178.423398 
L 495.390508 178.423398 
z
" clip-path="url(#p47f7d7ec14)" style="fill: #e9ebec"/>
    </g>
    <g id="patch_253">
     <path d="M 497.52122 184.88493 
L 499.651932 184.88493 
L 499.651932 178.423398 
L 497.52122 178.423398 
z
" clip-path="url(#p47f7d7ec14)" style="fill: #e9ebec"/>
    </g>
    <g id="patch_254">
     <path d="M 499.651932 184.88493 
L 501.782644 184.88493 
L 501.782644 178.423398 
L 499.651932 178.423398 
z
" clip-path="url(#p47f7d7ec14)" style="fill: #e9ebec"/>
    </g>
   </g>
  </g>
  <g id="text_52">
   <text style="fill: #242424; font: 700 11px 'Arial'; text-anchor: start" x="35.7696" y="165.834" transform="rotate(-0 35.7696 165.834)">b</text>
  </g>
  <g id="text_53">
   <text style="fill: #242424; font: 700 9px 'Arial'; text-anchor: start" x="58.5792" y="165.834" transform="rotate(-0 58.5792 165.834)">One observed interaction</text>
  </g>
  <g id="text_54">
   <text style="fill: #242424; font: 700 11px 'Arial'; text-anchor: start" x="228.096" y="165.834" transform="rotate(-0 228.096 165.834)">c</text>
  </g>
  <g id="text_55">
   <text style="fill: #242424; font: 700 9px 'Arial'; text-anchor: start" x="251.424" y="165.834" transform="rotate(-0 251.424 165.834)">Reading and dynamic 90% range</text>
  </g>
 </g>
 <defs>
  <clipPath id="p56e8c789d2">
   <rect x="34.7328" y="31.968" width="466.56" height="107.892"/>
  </clipPath>
  <clipPath id="p1051bce22b">
   <rect x="74.558125" y="191.808" width="94.53175" height="153.846"/>
  </clipPath>
  <clipPath id="pd6e79ff1dd">
   <rect x="251.424" y="191.808" width="251.424" height="153.846"/>
  </clipPath>
  <clipPath id="p47f7d7ec14">
   <rect x="251.424" y="178.423398" width="251.424" height="6.461532"/>
  </clipPath>
 </defs>
</svg>
